<svg width="75" height="98" viewBox="0 0 75 98" fill="none" xmlns="http://www.w3.org/2000/svg">
<path d="M17.0001 97.5333C7.9432 97.5333 0.600098 91.3245 0.600098 83.6667C0.600098 76.0088 7.9432 69.8 17.0001 69.8H28.7138C31.3009 69.8 33.4001 71.5749 33.4001 73.7624V83.6667C33.4001 91.3245 26.057 97.5333 17.0001 97.5333ZM58.0001 28.2H46.2864C43.6993 28.2 41.6001 26.4251 41.6001 24.2376V4.42907C41.6001 2.2416 43.6993 0.466667 46.2864 0.466667H58.0001C67.057 0.466667 74.4001 6.67547 74.4001 14.3333C74.4001 21.9912 67.057 28.2 58.0001 28.2ZM17.0001 0.466667H28.7138C31.3009 0.466667 33.4001 2.2416 33.4001 4.42907V24.2376C33.4001 26.4251 31.3009 28.2 28.7138 28.2H17.0001C7.9432 28.2 0.600098 21.9912 0.600098 14.3333C0.600098 6.67547 7.9432 0.466667 17.0001 0.466667ZM17.0001 35.1333H28.7138C31.3009 35.1333 33.4001 36.9083 33.4001 39.0957V58.9043C33.4001 61.0917 31.3009 62.8667 28.7138 62.8667H17.0001C7.9432 62.8667 0.600098 56.6579 0.600098 49C0.600098 41.3421 7.9432 35.1333 17.0001 35.1333ZM58.0001 35.1333C53.6506 35.1333 49.4791 36.5943 46.4036 39.1948C43.328 41.7953 41.6001 45.3223 41.6001 49C41.6001 52.6777 43.328 56.2047 46.4036 58.8052C49.4791 61.4057 53.6506 62.8667 58.0001 62.8667C62.3497 62.8667 66.5211 61.4057 69.5966 58.8052C72.6722 56.2047 74.4001 52.6777 74.4001 49C74.4001 45.3223 72.6722 41.7953 69.5966 39.1948C66.5211 36.5943 62.3497 35.1333 58.0001 35.1333Z" fill="#1B263B"/>
</svg>
