<svg width="108" height="100" viewBox="0 0 108 100" fill="none" xmlns="http://www.w3.org/2000/svg">
<path d="M104.56 43.7141L60.7516 2.92719C58.8938 1.18906 56.4469 0.32 54 0.32C51.5531 0.32 49.1063 1.18906 47.2485 2.92719L38.5847 10.9934L49.3056 20.975C52.8672 19.0259 57.5072 19.4478 60.5613 22.2913C63.6153 25.1347 64.0594 29.4547 61.966 32.7622L72.5056 42.575C76.0672 40.6259 80.7072 41.0478 83.7613 43.8913C87.3863 47.2663 87.3863 52.7338 83.7613 56.1088C80.1363 59.4838 74.2638 59.4838 70.6388 56.1088C67.5847 53.2653 67.1316 48.9453 69.225 45.6294L58.6853 35.8166C57.9331 36.23 57.1447 36.5338 56.32 36.7278V63.2638C60.3166 64.2256 63.28 67.5753 63.28 71.6C63.28 76.3756 59.1294 80.24 54 80.24C48.8706 80.24 44.72 76.3756 44.72 71.6C44.72 67.5753 47.6835 64.2256 51.68 63.2638V36.7278C50.1303 36.3566 48.6531 35.6394 47.4388 34.5088C44.3847 31.6653 43.9406 27.3453 46.0341 24.0378L35.3041 14.0478L3.44033 43.7141C-0.293423 47.1819 -0.293423 52.8181 3.44033 56.2859L47.2485 97.0728C49.1063 98.8109 51.5531 99.68 54 99.68C56.4469 99.68 58.8938 98.8109 60.7516 97.0728L104.56 56.2859C108.293 52.8181 108.293 47.1819 104.56 43.7141Z" fill="#1B263B"/>
</svg>
