<svg width="104" height="101" viewBox="0 0 104 101" fill="none" xmlns="http://www.w3.org/2000/svg">
<path d="M102.944 1.06678C102.472 0.615455 101.792 0.359985 101.084 0.359985H2.62641C1.91766 0.359985 1.23844 0.615455 0.765937 1.06678C0.283592 1.51811 0.0473415 2.12272 0.116248 2.73585L8.98547 88.6841C9.07406 89.5867 9.8025 90.3361 10.8066 90.5916L51.1561 100.555C51.3727 100.614 51.6089 100.64 51.8452 100.64C52.0814 100.64 52.3078 100.614 52.5342 100.555L92.9133 90.5916C93.9174 90.3361 94.636 89.5867 94.7344 88.6841L103.594 2.73585C103.663 2.12272 103.426 1.51811 102.944 1.06678ZM81.7111 30.7012H34.3036L35.4356 41.797H80.5692L77.183 74.5907L51.8353 81.2158L51.5892 81.1477L26.5369 74.5822L25.1686 61.2212H37.4438L37.9753 66.4072L51.983 68.9448L65.7347 66.4072L67.2014 52.3734H24.2531L20.9161 20.0992H82.8038L81.7111 30.7012Z" fill="#1B263B"/>
</svg>
