<svg width="100" height="93" viewBox="0 0 100 93" fill="none" xmlns="http://www.w3.org/2000/svg">
<path d="M18.75 0C8.39844 0 0 7.81055 0 17.4375V75.5625C0 85.1895 8.39844 93 18.75 93H81.25C91.6016 93 100 85.1895 100 75.5625V17.4375C100 7.81055 91.6016 0 81.25 0H18.75ZM65.3846 23.25C66.9321 23.25 68.1641 23.6831 69.1106 24.4796C70.0721 25.29 70.5529 26.4078 70.5529 27.7212C70.5529 29.0346 70.0871 30.0825 69.1106 30.851C68.1641 31.6055 66.9171 31.9688 65.3846 31.9688C63.8221 31.9688 62.6352 31.5356 61.7788 30.7392C60.9075 29.9567 60.4567 28.9787 60.4567 27.7212C60.4567 26.4636 60.9075 25.4157 61.7788 24.5913C62.6352 23.767 63.8221 23.25 65.3846 23.25ZM40.024 23.5853H46.0337C46.244 23.5853 46.4543 23.7251 46.5144 23.9207L59.0144 64.1611C59.0745 64.2309 59.1346 64.3008 59.1346 64.3846C59.1346 64.6361 58.9093 64.8317 58.6538 64.8317H50.4808C50.2554 64.8317 50.0601 64.692 50 64.4964L47.476 55.6659H38.101L35.5769 64.4964C35.5168 64.692 35.4417 64.8317 35.2163 64.8317H27.524C27.3738 64.8317 27.1334 64.72 27.0433 64.6082C26.9531 64.4964 26.9982 64.3986 27.0433 64.2728L39.5433 23.9207C39.6034 23.7251 39.8137 23.5853 40.024 23.5853ZM61.7788 35.3221H69.1106C69.381 35.3221 69.5913 35.5177 69.5913 35.7692V64.3846C69.5913 64.6361 69.381 64.8317 69.1106 64.8317H61.7788C61.5084 64.8317 61.2981 64.6361 61.2981 64.3846V35.7692C61.2981 35.5177 61.5084 35.3221 61.7788 35.3221ZM42.9087 35.9928L42.1875 40.1286L40.024 48.9591H45.9135L43.5096 40.1286L42.9087 35.9928Z" fill="#1B263B"/>
</svg>
