<svg width="123" height="117" viewBox="0 0 123 117" fill="none" xmlns="http://www.w3.org/2000/svg">
<path d="M115.198 0H7.81334C3.50056 0 0 3.3298 0 7.4322V109.568C0 113.67 3.50056 117 7.81334 117H115.187C119.499 117 123 113.67 123 109.579V7.4322C123 3.3298 119.499 0 115.198 0ZM67.3571 89.6543C67.3571 100.786 60.4933 105.857 50.4721 105.857C41.4118 105.857 34.8797 100.079 32.2143 94.7143L41.4233 89.4149C43.1964 92.4074 45.8962 94.7143 49.7857 94.7143C53.5036 94.7143 55.6429 93.3323 55.6429 87.9568V52.9286H67.3571V89.6543ZM92.7648 105.857C82.389 105.857 76.4975 100.884 73.2143 94.7143L82 89.1429C84.3909 92.8644 86.9992 96.4227 92.5131 96.4227C97.1462 96.4227 99.5714 94.2246 99.5714 91.1777C99.5714 87.5433 97.0547 86.2483 91.964 84.1264L89.1727 82.9838C81.1077 79.7193 75.7425 75.6278 75.7425 66.966C75.7425 59.0006 82.1373 52.9286 92.1127 52.9286C99.2168 52.9286 104.319 55.279 108.003 61.4381L99.3083 66.7592C97.3864 63.4838 95.3273 62.1998 92.1127 62.1998C88.841 62.1998 86.7704 64.1803 86.7704 66.7592C86.7704 69.9475 88.841 71.2316 93.6342 73.2121L96.4255 74.3546C105.932 78.2176 111.286 82.1677 111.286 91.0472C111.286 100.612 103.381 105.857 92.7648 105.857Z" fill="#1B263B"/>
</svg>
