<svg width="144" height="123" viewBox="0 0 144 123" fill="none" xmlns="http://www.w3.org/2000/svg">
<path fill-rule="evenodd" clip-rule="evenodd" d="M101.617 0.960737C99.1993 0.884792 96.6688 1.27857 94.1316 2.04704C89.0573 3.58398 83.74 6.57912 78.2831 10.7261C76.1446 12.3514 73.9866 14.2091 71.8214 16.1803C69.7039 14.2592 67.5903 12.4513 65.499 10.8619C60.0465 6.71823 54.7435 3.72195 49.6807 2.18848C44.618 0.655019 39.5805 0.607502 35.4431 2.83913C31.3058 5.07076 28.8317 9.16733 27.7218 14.0303C26.6119 18.8933 26.7341 24.6845 27.849 31.1678C28.2362 33.4198 28.7885 35.7824 29.4175 38.1892C27.0534 38.8585 24.7576 39.5623 22.6287 40.3392C16.2038 42.6836 10.8876 45.4883 7.01639 48.8259C3.14514 52.1634 0.645508 56.2142 0.645508 60.662C0.645508 65.1099 3.14514 69.155 7.01639 72.4926C10.8876 75.8301 16.2038 78.6405 22.6287 80.9849C24.9051 81.8156 27.3697 82.5636 29.914 83.2707C28.9989 86.4654 28.2574 89.5655 27.7521 92.5043C26.6363 98.9929 26.5185 104.785 27.6309 109.659C28.7434 114.533 31.2188 118.653 35.3765 120.895C39.5343 123.138 44.5944 123.083 49.6686 121.546C54.7429 120.009 60.0542 117.019 65.5111 112.872C67.6299 111.262 69.7732 109.425 71.9183 107.475C74.0746 109.437 76.2265 111.283 78.3558 112.901C83.8083 117.044 89.1173 120.035 94.1801 121.568C99.2429 123.102 104.28 123.149 108.418 120.918C112.555 118.686 115.023 114.59 116.133 109.727C117.243 104.864 117.121 99.0782 116.006 92.5948C115.499 89.6481 114.757 86.5377 113.838 83.3329C116.466 82.6086 119.009 81.8405 121.353 80.9849C127.778 78.6405 133.094 75.8301 136.966 72.4926C140.837 69.155 143.336 65.1099 143.336 60.662C143.336 56.2142 140.837 52.1634 136.966 48.8259C133.094 45.4883 127.778 42.6836 121.353 40.3392C119.194 39.5512 116.863 38.8382 114.462 38.1609C115.096 35.7393 115.659 33.3598 116.048 31.0943C117.164 24.6057 117.282 18.8081 116.169 13.9341C115.057 9.06011 112.575 4.94601 108.418 2.70335C106.339 1.58202 104.034 1.03668 101.617 0.960737ZM101.332 6.85619C102.849 6.89494 104.143 7.23221 105.25 7.82933C107.464 9.02357 109.101 11.3479 109.974 15.1732C110.847 18.9985 110.817 24.1669 109.786 30.1607C109.433 32.2129 108.921 34.3879 108.339 36.6163C101.997 35.1903 95.0467 34.1321 87.6396 33.5102C83.9212 28.6975 80.1004 24.313 76.2483 20.4236C78.2859 18.5654 80.3102 16.8275 82.2861 15.3259C87.3269 11.4951 92.0991 8.88848 96.0816 7.68223C98.0729 7.0791 99.8151 6.81743 101.332 6.85619ZM42.4923 6.87316C44.0181 6.83336 45.764 7.09433 47.761 7.6992C51.755 8.90894 56.5356 11.5144 61.5807 15.3486C63.517 16.82 65.496 18.5249 67.4914 20.3388C63.6108 24.26 59.7584 28.6825 56.0153 33.5385C48.6396 34.1717 41.718 35.2356 35.4068 36.6672C34.829 34.4512 34.3166 32.2874 33.9655 30.2456C32.9339 24.2466 32.9082 19.0774 33.7838 15.2411C34.6594 11.4047 36.3093 9.06289 38.5438 7.85762C39.6611 7.25499 40.9665 6.91295 42.4923 6.87316ZM71.9183 24.5935C74.4441 27.1614 76.9705 29.9716 79.4762 32.9953C77.0141 32.8994 74.522 32.8426 71.991 32.8426C69.4095 32.8426 66.8699 32.9013 64.3604 33.001C66.8667 29.9749 69.3918 27.1634 71.9183 24.5935ZM71.991 38.6927C76.2075 38.6927 80.3173 38.8546 84.3149 39.1284C87.0655 42.8194 89.7535 46.7351 92.3148 50.8797C94.5653 54.5214 96.6019 58.1575 98.4556 61.7484C96.5824 65.3868 94.5116 69.0721 92.23 72.7641C90.2216 76.0141 88.1243 79.1008 85.9924 82.0769C81.4769 82.4295 76.7979 82.6257 71.991 82.6257C67.0683 82.6257 62.2842 82.4179 57.6686 82.0486C55.5722 79.1153 53.5102 76.0753 51.5339 72.8773C49.2575 69.1937 47.1968 65.5152 45.3265 61.8841C47.2046 58.2326 49.2746 54.5337 51.5642 50.8288C54.112 46.7059 56.7922 42.8128 59.5278 39.1397C63.5684 38.8598 67.7259 38.6927 71.991 38.6927ZM92.2967 39.8526C97.408 40.4484 102.207 41.2756 106.674 42.2685C105.348 46.3273 103.716 50.5669 101.738 54.942C100.454 52.6291 99.1236 50.3084 97.6865 47.9829C95.9449 45.1647 94.1309 42.4778 92.2967 39.8526ZM51.3522 39.8979C49.5566 42.474 47.7898 45.1086 46.0835 47.8697C44.6279 50.2251 43.2702 52.577 41.9715 54.9194C40.0106 50.5705 38.388 46.3551 37.0722 42.3194C41.5053 41.3248 46.2765 40.5005 51.3522 39.8979ZM112.808 43.8074C115.006 44.4287 117.129 45.0771 119.076 45.7876C124.999 47.9488 129.684 50.508 132.72 53.1258C135.757 55.7437 137.075 58.2402 137.075 60.662C137.075 63.0839 135.757 65.5804 132.72 68.1983C129.684 70.8161 124.999 73.3753 119.076 75.5365C116.912 76.326 114.535 77.042 112.063 77.7204C110.3 72.6255 108.05 67.3103 105.372 61.8841C108.451 55.6544 110.939 49.5804 112.808 43.8074ZM31.0707 43.8357C32.9189 49.5511 35.3747 55.5647 38.4106 61.7314C35.7147 67.1891 33.4531 72.5346 31.6824 77.6581C29.2979 76.9976 27.001 76.301 24.9057 75.5365C18.983 73.3753 14.2981 70.8161 11.2616 68.1983C8.2252 65.5804 6.90739 63.0839 6.90739 60.662C6.90739 58.2402 8.2252 55.7437 11.2616 53.1258C14.2981 50.508 18.983 47.9488 24.9057 45.7876C26.823 45.0881 28.9101 44.4489 31.0707 43.8357ZM71.991 47.3549C63.4655 47.3549 56.4877 53.8739 56.4877 61.8389C56.4877 69.8039 63.4655 76.3229 71.991 76.3229C80.5165 76.3229 87.4943 69.8039 87.4943 61.8389C87.4943 53.8739 80.5165 47.3549 71.991 47.3549ZM42.0442 68.6905C43.3486 71.0445 44.7052 73.4066 46.1683 75.7741C47.313 77.6264 48.482 79.4294 49.6686 81.1999C45.5046 80.6605 41.5463 79.9775 37.8292 79.1688C39.0113 75.7864 40.4255 72.2755 42.0442 68.6905ZM101.817 68.6905C103.442 72.284 104.857 75.8005 106.044 79.1914C102.315 79.9992 98.3444 80.6798 94.1679 81.2169C95.3702 79.4247 96.5574 77.5991 97.7168 75.7232C99.169 73.3731 100.52 71.0273 101.817 68.6905ZM36.0427 84.7926C41.6543 86.0346 47.7367 86.9887 54.1864 87.6102C58.4919 93.4281 62.9772 98.6558 67.4914 103.226C65.4728 105.065 63.4721 106.79 61.5141 108.278C56.4733 112.109 51.6951 114.71 47.7126 115.916C43.73 117.123 40.7579 116.963 38.5438 115.769C36.3298 114.575 34.6993 112.251 33.8262 108.425C32.9531 104.6 32.9772 99.4373 34.0079 93.4435C34.4754 90.7243 35.1742 87.8127 36.0427 84.7926ZM107.836 84.8153C108.712 87.8538 109.413 90.7761 109.883 93.5114C110.915 99.5104 110.94 104.68 110.065 108.516C109.189 112.352 107.551 114.7 105.317 115.905C103.083 117.11 100.082 117.268 96.0877 116.058C92.0937 114.848 87.3131 112.243 82.268 108.408C80.2959 106.91 78.2814 105.17 76.2483 103.316C80.7927 98.7285 85.3097 93.4742 89.6441 87.6216C96.1101 87.0041 102.209 86.0558 107.836 84.8153ZM62.2772 88.2043C65.4608 88.3664 68.6864 88.4759 71.991 88.4759C75.1862 88.4759 78.3072 88.373 81.3898 88.2213C78.2387 92.1933 75.0266 95.8043 71.8275 99.056C68.6302 95.7974 65.4242 92.1799 62.2772 88.2043Z" fill="#1B263B"/>
</svg>
