<svg id="visual" viewBox="0 0 900 600" width="900" height="600" xmlns="http://www.w3.org/2000/svg" xmlns:xlink="http://www.w3.org/1999/xlink" version="1.1"><g stroke-width="1" stroke-linejoin="bevel"><path d="M440.9 287.2L434.1 280.2L422.3 287.1Z" fill="#f9feff" stroke="#f9feff"></path><path d="M466.9 244.1L417.6 255.9L434.1 280.2Z" fill="#ffffff" stroke="#ffffff"></path><path d="M434.1 280.2L417.6 255.9L422.3 287.1Z" fill="#fbfeff" stroke="#fbfeff"></path><path d="M331.2 263.9L394.6 332.1L422.3 287.1Z" fill="#f6feff" stroke="#f6feff"></path><path d="M422.3 287.1L454.7 343.4L440.9 287.2Z" fill="#f8feff" stroke="#f8feff"></path><path d="M440.9 287.2L466.9 244.1L434.1 280.2Z" fill="#f3fdff" stroke="#f3fdff"></path><path d="M394.6 332.1L454.7 343.4L422.3 287.1Z" fill="#f9feff" stroke="#f9feff"></path><path d="M440.9 287.2L497.7 304.1L466.9 244.1Z" fill="#f5fdff" stroke="#f5fdff"></path><path d="M466.9 244.1L466.9 237.8L417.6 255.9Z" fill="#fdffff" stroke="#fdffff"></path><path d="M454.7 343.4L497.7 304.1L440.9 287.2Z" fill="#f8feff" stroke="#f8feff"></path><path d="M466.9 244.1L506.1 247.8L466.9 237.8Z" fill="#fbfeff" stroke="#fbfeff"></path><path d="M454.7 343.4L495.1 327.1L497.7 304.1Z" fill="#fafeff" stroke="#fafeff"></path><path d="M403.7 392.2L466.7 356.9L454.7 343.4Z" fill="#feffff" stroke="#feffff"></path><path d="M454.7 343.4L466.7 356.9L495.1 327.1Z" fill="#fdffff" stroke="#fdffff"></path><path d="M393.3 207.6L379.9 228.9L417.6 255.9Z" fill="#f5fdff" stroke="#f5fdff"></path><path d="M417.6 255.9L331.2 263.9L422.3 287.1Z" fill="#f3fdff" stroke="#f3fdff"></path><path d="M554.7 261.8L506.1 247.8L497.7 304.1Z" fill="#fdffff" stroke="#fdffff"></path><path d="M497.7 304.1L506.1 247.8L466.9 244.1Z" fill="#fafeff" stroke="#fafeff"></path><path d="M466.9 237.8L393.3 207.6L417.6 255.9Z" fill="#f8feff" stroke="#f8feff"></path><path d="M380.3 191.8L393.3 207.6L439.3 170.5Z" fill="#f3fdff" stroke="#f3fdff"></path><path d="M365.3 194.9L355.2 232.8L379.9 228.9Z" fill="#f9feff" stroke="#f9feff"></path><path d="M379.9 228.9L331.2 263.9L417.6 255.9Z" fill="#fafeff" stroke="#fafeff"></path><path d="M330.6 389.2L383.3 378.5L394.6 332.1Z" fill="#fafeff" stroke="#fafeff"></path><path d="M394.6 332.1L403.7 392.2L454.7 343.4Z" fill="#fdffff" stroke="#fdffff"></path><path d="M355.2 232.8L331.2 263.9L379.9 228.9Z" fill="#f2fdff" stroke="#f2fdff"></path><path d="M383.3 378.5L403.7 392.2L394.6 332.1Z" fill="#f9feff" stroke="#f9feff"></path><path d="M439.3 170.5L393.3 207.6L466.9 237.8Z" fill="#f3fdff" stroke="#f3fdff"></path><path d="M393.3 207.6L365.3 194.9L379.9 228.9Z" fill="#f3fdff" stroke="#f3fdff"></path><path d="M355.2 232.8L312.6 236.8L331.2 263.9Z" fill="#f5fdff" stroke="#f5fdff"></path><path d="M380.3 191.8L365.3 194.9L393.3 207.6Z" fill="#f8feff" stroke="#f8feff"></path><path d="M553.4 165.6L439.3 170.5L466.9 237.8Z" fill="#ffffff" stroke="#ffffff"></path><path d="M346.6 116.3L327.2 190.5L365.3 194.9Z" fill="#f3fdff" stroke="#f3fdff"></path><path d="M564.2 337.9L554.7 261.8L497.7 304.1Z" fill="#f3fdff" stroke="#f3fdff"></path><path d="M553.4 165.6L455.7 130.6L439.3 170.5Z" fill="#f6feff" stroke="#f6feff"></path><path d="M327.2 190.5L312.6 236.8L355.2 232.8Z" fill="#ffffff" stroke="#ffffff"></path><path d="M365.2 417.2L391.3 418.4L383.3 378.5Z" fill="#f6feff" stroke="#f6feff"></path><path d="M406.6 427.7L429.6 420.4L403.7 392.2Z" fill="#f6feff" stroke="#f6feff"></path><path d="M403.7 392.2L429.6 420.4L466.7 356.9Z" fill="#ffffff" stroke="#ffffff"></path><path d="M571.2 376.2L564.2 337.9L495.1 327.1Z" fill="#fafeff" stroke="#fafeff"></path><path d="M495.1 327.1L564.2 337.9L497.7 304.1Z" fill="#f9feff" stroke="#f9feff"></path><path d="M330.6 389.2L394.6 332.1L285.5 357.2Z" fill="#f3fdff" stroke="#f3fdff"></path><path d="M383.3 378.5L391.3 418.4L403.7 392.2Z" fill="#f9feff" stroke="#f9feff"></path><path d="M391.3 418.4L406.6 427.7L403.7 392.2Z" fill="#f8feff" stroke="#f8feff"></path><path d="M522.4 418.4L495.1 327.1L466.7 356.9Z" fill="#f2fdff" stroke="#f2fdff"></path><path d="M285.5 357.2L394.6 332.1L331.2 263.9Z" fill="#f8feff" stroke="#f8feff"></path><path d="M391.3 418.4L381.2 432.7L406.6 427.7Z" fill="#f8feff" stroke="#f8feff"></path><path d="M346.6 116.3L365.3 194.9L380.3 191.8Z" fill="#f2fdff" stroke="#f2fdff"></path><path d="M365.3 194.9L327.2 190.5L355.2 232.8Z" fill="#fbfeff" stroke="#fbfeff"></path><path d="M330.6 389.2L365.2 417.2L383.3 378.5Z" fill="#f5fdff" stroke="#f5fdff"></path><path d="M280.5 250.1L283.8 275.8L312.6 236.8Z" fill="#f3fdff" stroke="#f3fdff"></path><path d="M312.6 236.8L283.8 275.8L331.2 263.9Z" fill="#feffff" stroke="#feffff"></path><path d="M497.3 452.7L497.4 426.2L429.6 420.4Z" fill="#f5fdff" stroke="#f5fdff"></path><path d="M429.6 420.4L497.4 426.2L466.7 356.9Z" fill="#fdffff" stroke="#fdffff"></path><path d="M365.2 417.2L381.2 432.7L391.3 418.4Z" fill="#fafeff" stroke="#fafeff"></path><path d="M387.7 465.5L497.3 452.7L429.6 420.4Z" fill="#ffffff" stroke="#ffffff"></path><path d="M360.9 442.4L381.2 432.7L365.2 417.2Z" fill="#f3fdff" stroke="#f3fdff"></path><path d="M564.2 337.9L580.8 258.1L554.7 261.8Z" fill="#f5fdff" stroke="#f5fdff"></path><path d="M554.7 261.8L569.1 221.9L506.1 247.8Z" fill="#f3fdff" stroke="#f3fdff"></path><path d="M574.1 229.6L569.1 221.9L554.7 261.8Z" fill="#ffffff" stroke="#ffffff"></path><path d="M580.8 258.1L574.1 229.6L554.7 261.8Z" fill="#f6feff" stroke="#f6feff"></path><path d="M270.8 233.5L280.5 250.1L312.6 236.8Z" fill="#fdffff" stroke="#fdffff"></path><path d="M497.4 426.2L522.4 418.4L466.7 356.9Z" fill="#f2fdff" stroke="#f2fdff"></path><path d="M553.4 165.6L466.9 237.8L506.1 247.8Z" fill="#f3fdff" stroke="#f3fdff"></path><path d="M439.3 170.5L405.6 115.6L380.3 191.8Z" fill="#f8feff" stroke="#f8feff"></path><path d="M238.5 304.8L285.5 357.2L283.8 275.8Z" fill="#f5fdff" stroke="#f5fdff"></path><path d="M283.8 275.8L285.5 357.2L331.2 263.9Z" fill="#f6feff" stroke="#f6feff"></path><path d="M335.3 433.2L360.9 442.4L365.2 417.2Z" fill="#fdffff" stroke="#fdffff"></path><path d="M522.4 418.4L571.2 376.2L495.1 327.1Z" fill="#ffffff" stroke="#ffffff"></path><path d="M564.2 337.9L610.1 347.4L580.8 258.1Z" fill="#f9feff" stroke="#f9feff"></path><path d="M335.3 433.2L365.2 417.2L330.6 389.2Z" fill="#fafeff" stroke="#fafeff"></path><path d="M381.2 432.7L387.7 465.5L406.6 427.7Z" fill="#f8feff" stroke="#f8feff"></path><path d="M571.2 376.2L584.8 362.2L564.2 337.9Z" fill="#f3fdff" stroke="#f3fdff"></path><path d="M327.2 190.5L270.8 233.5L312.6 236.8Z" fill="#f6feff" stroke="#f6feff"></path><path d="M230.8 295.2L238.5 304.8L283.8 275.8Z" fill="#f6feff" stroke="#f6feff"></path><path d="M285.5 357.2L335.3 433.2L330.6 389.2Z" fill="#f9feff" stroke="#f9feff"></path><path d="M581.8 179.6L553.4 165.6L569.1 221.9Z" fill="#fbfeff" stroke="#fbfeff"></path><path d="M569.1 221.9L553.4 165.6L506.1 247.8Z" fill="#ffffff" stroke="#ffffff"></path><path d="M455.7 130.6L405.6 115.6L439.3 170.5Z" fill="#f9feff" stroke="#f9feff"></path><path d="M327.2 190.5L258.5 222.5L270.8 233.5Z" fill="#f8feff" stroke="#f8feff"></path><path d="M387.7 465.5L429.6 420.4L406.6 427.7Z" fill="#f3fdff" stroke="#f3fdff"></path><path d="M497.4 426.2L497.3 452.7L522.4 418.4Z" fill="#fbfeff" stroke="#fbfeff"></path><path d="M626.5 398.2L595.1 368.5L571.2 376.2Z" fill="#fbfeff" stroke="#fbfeff"></path><path d="M571.2 376.2L595.1 368.5L584.8 362.2Z" fill="#f8feff" stroke="#f8feff"></path><path d="M366.9 495.7L387.7 465.5L360.9 442.4Z" fill="#fbfeff" stroke="#fbfeff"></path><path d="M360.9 442.4L387.7 465.5L381.2 432.7Z" fill="#fafeff" stroke="#fafeff"></path><path d="M539.1 444.7L571.2 376.2L522.4 418.4Z" fill="#f5fdff" stroke="#f5fdff"></path><path d="M584.8 362.2L610.1 347.4L564.2 337.9Z" fill="#fbfeff" stroke="#fbfeff"></path><path d="M292.6 147.5L258.5 222.5L327.2 190.5Z" fill="#fafeff" stroke="#fafeff"></path><path d="M230.8 295.2L283.8 275.8L280.5 250.1Z" fill="#feffff" stroke="#feffff"></path><path d="M603.2 187.3L581.8 179.6L569.1 221.9Z" fill="#f2fdff" stroke="#f2fdff"></path><path d="M603.2 187.3L569.1 221.9L574.1 229.6Z" fill="#f2fdff" stroke="#f2fdff"></path><path d="M626.5 248.8L574.1 229.6L580.8 258.1Z" fill="#ffffff" stroke="#ffffff"></path><path d="M581.8 179.6L574.4 168.3L553.4 165.6Z" fill="#fbfeff" stroke="#fbfeff"></path><path d="M518.4 101.2L419.3 99.3L455.7 130.6Z" fill="#fbfeff" stroke="#fbfeff"></path><path d="M595.1 368.5L610.1 347.4L584.8 362.2Z" fill="#f2fdff" stroke="#f2fdff"></path><path d="M497.3 452.7L539.1 444.7L522.4 418.4Z" fill="#fdffff" stroke="#fdffff"></path><path d="M455.7 130.6L419.3 99.3L405.6 115.6Z" fill="#feffff" stroke="#feffff"></path><path d="M357.3 111.2L346.6 116.3L380.3 191.8Z" fill="#f8feff" stroke="#f8feff"></path><path d="M551.4 136.8L455.7 130.6L553.4 165.6Z" fill="#f8feff" stroke="#f8feff"></path><path d="M357.3 111.2L380.3 191.8L405.6 115.6Z" fill="#f9feff" stroke="#f9feff"></path><path d="M365.2 98.6L357.3 111.2L405.6 115.6Z" fill="#f3fdff" stroke="#f3fdff"></path><path d="M230.8 295.2L280.5 250.1L270.8 233.5Z" fill="#f3fdff" stroke="#f3fdff"></path><path d="M330.8 511.5L359.9 501.8L335.3 433.2Z" fill="#f6feff" stroke="#f6feff"></path><path d="M574.4 168.3L551.4 136.8L553.4 165.6Z" fill="#fdffff" stroke="#fdffff"></path><path d="M545.8 493.7L539.1 444.7L497.3 452.7Z" fill="#f6feff" stroke="#f6feff"></path><path d="M545.8 493.7L545.7 449.7L539.1 444.7Z" fill="#ffffff" stroke="#ffffff"></path><path d="M539.1 444.7L545.7 449.7L571.2 376.2Z" fill="#fafeff" stroke="#fafeff"></path><path d="M595.1 368.5L640.2 381.4L610.1 347.4Z" fill="#f5fdff" stroke="#f5fdff"></path><path d="M306.9 130.6L292.6 147.5L327.2 190.5Z" fill="#fdffff" stroke="#fdffff"></path><path d="M653.8 324.9L626.5 248.8L580.8 258.1Z" fill="#feffff" stroke="#feffff"></path><path d="M581.8 179.6L601.2 141.8L574.4 168.3Z" fill="#f8feff" stroke="#f8feff"></path><path d="M574.4 168.3L601.2 141.8L551.4 136.8Z" fill="#f5fdff" stroke="#f5fdff"></path><path d="M633.4 219.9L603.2 187.3L574.1 229.6Z" fill="#fafeff" stroke="#fafeff"></path><path d="M258.5 222.5L230.8 295.2L270.8 233.5Z" fill="#f2fdff" stroke="#f2fdff"></path><path d="M359.9 501.8L360.9 442.4L335.3 433.2Z" fill="#f9feff" stroke="#f9feff"></path><path d="M304.9 128.2L306.9 130.6L314.9 102.5Z" fill="#ffffff" stroke="#ffffff"></path><path d="M346.6 116.3L306.9 130.6L327.2 190.5Z" fill="#fdffff" stroke="#fdffff"></path><path d="M419.3 99.3L365.2 98.6L405.6 115.6Z" fill="#f5fdff" stroke="#f5fdff"></path><path d="M357.3 111.2L363.9 85.3L346.6 116.3Z" fill="#f9feff" stroke="#f9feff"></path><path d="M314.9 102.5L306.9 130.6L346.6 116.3Z" fill="#ffffff" stroke="#ffffff"></path><path d="M306.9 130.6L304.9 128.2L292.6 147.5Z" fill="#feffff" stroke="#feffff"></path><path d="M580.1 107.2L518.4 101.2L551.4 136.8Z" fill="#fdffff" stroke="#fdffff"></path><path d="M551.4 136.8L518.4 101.2L455.7 130.6Z" fill="#feffff" stroke="#feffff"></path><path d="M643.4 252.1L633.4 219.9L626.5 248.8Z" fill="#f8feff" stroke="#f8feff"></path><path d="M626.5 248.8L633.4 219.9L574.1 229.6Z" fill="#feffff" stroke="#feffff"></path><path d="M653.8 324.9L643.4 252.1L626.5 248.8Z" fill="#feffff" stroke="#feffff"></path><path d="M419.3 99.3L363.9 85.3L365.2 98.6Z" fill="#fafeff" stroke="#fafeff"></path><path d="M365.2 98.6L363.9 85.3L357.3 111.2Z" fill="#f3fdff" stroke="#f3fdff"></path><path d="M377.7 64.5L363.9 85.3L419.3 99.3Z" fill="#f5fdff" stroke="#f5fdff"></path><path d="M359.9 501.8L366.9 495.7L360.9 442.4Z" fill="#feffff" stroke="#feffff"></path><path d="M387.7 465.5L500.3 524.8L497.3 452.7Z" fill="#fdffff" stroke="#fdffff"></path><path d="M335.3 433.2L285.5 357.2L224.2 376.4Z" fill="#f9feff" stroke="#f9feff"></path><path d="M363.9 85.3L314.9 102.5L346.6 116.3Z" fill="#fbfeff" stroke="#fbfeff"></path><path d="M304.9 128.2L252.8 126.6L292.6 147.5Z" fill="#ffffff" stroke="#ffffff"></path><path d="M545.7 449.7L626.5 398.2L571.2 376.2Z" fill="#fbfeff" stroke="#fbfeff"></path><path d="M610.1 347.4L653.8 324.9L580.8 258.1Z" fill="#feffff" stroke="#feffff"></path><path d="M224.2 376.4L285.5 357.2L238.5 304.8Z" fill="#fafeff" stroke="#fafeff"></path><path d="M500.3 524.8L545.8 493.7L497.3 452.7Z" fill="#f9feff" stroke="#f9feff"></path><path d="M189.1 363.4L224.2 376.4L238.5 304.8Z" fill="#fafeff" stroke="#fafeff"></path><path d="M610.8 137.8L601.2 141.8L603.2 187.3Z" fill="#fbfeff" stroke="#fbfeff"></path><path d="M603.2 187.3L601.2 141.8L581.8 179.6Z" fill="#fafeff" stroke="#fafeff"></path><path d="M640.2 381.4L653.8 324.9L610.1 347.4Z" fill="#f2fdff" stroke="#f2fdff"></path><path d="M340.3 0L306.8 102.2L314.9 102.5Z" fill="#f5fdff" stroke="#f5fdff"></path><path d="M314.9 102.5L306.8 102.2L304.9 128.2Z" fill="#fbfeff" stroke="#fbfeff"></path><path d="M168.7 240.8L197.2 264.1L258.5 222.5Z" fill="#f5fdff" stroke="#f5fdff"></path><path d="M626.5 398.2L640.2 381.4L595.1 368.5Z" fill="#f6feff" stroke="#f6feff"></path><path d="M703.8 185.5L638.4 190.5L633.4 219.9Z" fill="#ffffff" stroke="#ffffff"></path><path d="M633.4 219.9L638.4 190.5L603.2 187.3Z" fill="#f5fdff" stroke="#f5fdff"></path><path d="M703.8 185.5L633.4 219.9L643.4 252.1Z" fill="#fafeff" stroke="#fafeff"></path><path d="M435.1 34.3L377.7 64.5L419.3 99.3Z" fill="#f3fdff" stroke="#f3fdff"></path><path d="M363.9 85.3L340.3 0L314.9 102.5Z" fill="#feffff" stroke="#feffff"></path><path d="M380.6 520.5L387.7 465.5L366.9 495.7Z" fill="#f5fdff" stroke="#f5fdff"></path><path d="M545.7 449.7L638.8 441.5L626.5 398.2Z" fill="#fbfeff" stroke="#fbfeff"></path><path d="M638.4 190.5L610.8 137.8L603.2 187.3Z" fill="#ffffff" stroke="#ffffff"></path><path d="M601.2 141.8L580.1 107.2L551.4 136.8Z" fill="#feffff" stroke="#feffff"></path><path d="M612.5 118.5L580.1 107.2L601.2 141.8Z" fill="#f5fdff" stroke="#f5fdff"></path><path d="M518.4 101.2L435.1 34.3L419.3 99.3Z" fill="#f9feff" stroke="#f9feff"></path><path d="M191.7 266.6L197.2 264.1L168.7 240.8Z" fill="#f9feff" stroke="#f9feff"></path><path d="M258.5 222.5L197.2 264.1L230.8 295.2Z" fill="#f8feff" stroke="#f8feff"></path><path d="M230.8 295.2L184.8 307.9L238.5 304.8Z" fill="#f9feff" stroke="#f9feff"></path><path d="M545.8 493.7L553.4 491.8L545.7 449.7Z" fill="#feffff" stroke="#feffff"></path><path d="M626.5 398.2L638.8 441.5L640.2 381.4Z" fill="#feffff" stroke="#feffff"></path><path d="M359.9 501.8L380.6 520.5L366.9 495.7Z" fill="#fdffff" stroke="#fdffff"></path><path d="M252.8 126.6L258.5 222.5L292.6 147.5Z" fill="#fafeff" stroke="#fafeff"></path><path d="M197.2 264.1L191.7 266.6L230.8 295.2Z" fill="#f2fdff" stroke="#f2fdff"></path><path d="M231.2 77.3L252.8 126.6L306.8 102.2Z" fill="#fafeff" stroke="#fafeff"></path><path d="M306.8 102.2L252.8 126.6L304.9 128.2Z" fill="#f3fdff" stroke="#f3fdff"></path><path d="M308.9 513.5L330.8 511.5L335.3 433.2Z" fill="#fafeff" stroke="#fafeff"></path><path d="M359.9 501.8L330.8 511.5L380.6 520.5Z" fill="#ffffff" stroke="#ffffff"></path><path d="M380.6 520.5L500.3 524.8L387.7 465.5Z" fill="#f2fdff" stroke="#f2fdff"></path><path d="M545.8 493.7L589.2 505.8L553.4 491.8Z" fill="#f3fdff" stroke="#f3fdff"></path><path d="M191.7 266.6L184.8 307.9L230.8 295.2Z" fill="#f8feff" stroke="#f8feff"></path><path d="M580.1 107.2L534.1 63.5L518.4 101.2Z" fill="#f5fdff" stroke="#f5fdff"></path><path d="M610.8 137.8L612.5 118.5L601.2 141.8Z" fill="#f8feff" stroke="#f8feff"></path><path d="M580.1 107.2L570.8 23.3L534.1 63.5Z" fill="#fbfeff" stroke="#fbfeff"></path><path d="M629.2 93.2L612.5 118.5L692.8 99.2Z" fill="#f5fdff" stroke="#f5fdff"></path><path d="M184.8 307.9L189.1 363.4L238.5 304.8Z" fill="#fafeff" stroke="#fafeff"></path><path d="M219.2 498.5L308.9 513.5L335.3 433.2Z" fill="#f9feff" stroke="#f9feff"></path><path d="M589.2 505.8L600.4 480.7L553.4 491.8Z" fill="#f6feff" stroke="#f6feff"></path><path d="M553.4 491.8L600.4 480.7L545.7 449.7Z" fill="#fafeff" stroke="#fafeff"></path><path d="M477.7 14.2L435.1 34.3L518.4 101.2Z" fill="#fafeff" stroke="#fafeff"></path><path d="M235.2 30.2L231.2 77.3L306.8 102.2Z" fill="#fdffff" stroke="#fdffff"></path><path d="M219.2 498.5L335.3 433.2L224.2 376.4Z" fill="#fdffff" stroke="#fdffff"></path><path d="M330.8 511.5L284.5 549.5L380.6 520.5Z" fill="#ffffff" stroke="#ffffff"></path><path d="M600.4 480.7L638.8 441.5L545.7 449.7Z" fill="#f8feff" stroke="#f8feff"></path><path d="M640.2 381.4L694.8 353.4L653.8 324.9Z" fill="#f3fdff" stroke="#f3fdff"></path><path d="M174.7 186.5L168.7 240.8L258.5 222.5Z" fill="#f6feff" stroke="#f6feff"></path><path d="M191.7 266.6L132.1 321.1L184.8 307.9Z" fill="#fdffff" stroke="#fdffff"></path><path d="M184.8 307.9L149.8 343.1L189.1 363.4Z" fill="#f6feff" stroke="#f6feff"></path><path d="M563.2 600L589.2 505.8L545.8 493.7Z" fill="#f8feff" stroke="#f8feff"></path><path d="M600.4 480.7L647.4 475.5L638.8 441.5Z" fill="#f2fdff" stroke="#f2fdff"></path><path d="M589.2 505.8L601.2 498.5L600.4 480.7Z" fill="#f6feff" stroke="#f6feff"></path><path d="M710.9 380.1L694.8 353.4L640.2 381.4Z" fill="#ffffff" stroke="#ffffff"></path><path d="M653.8 324.9L709.9 263.9L643.4 252.1Z" fill="#f9feff" stroke="#f9feff"></path><path d="M252.8 126.6L174.7 186.5L258.5 222.5Z" fill="#f9feff" stroke="#f9feff"></path><path d="M692.8 99.2L612.5 118.5L610.8 137.8Z" fill="#fdffff" stroke="#fdffff"></path><path d="M612.5 118.5L629.2 93.2L580.1 107.2Z" fill="#f8feff" stroke="#f8feff"></path><path d="M692.8 99.2L610.8 137.8L638.4 190.5Z" fill="#ffffff" stroke="#ffffff"></path><path d="M534.1 63.5L477.7 14.2L518.4 101.2Z" fill="#ffffff" stroke="#ffffff"></path><path d="M520.7 0L477.7 14.2L534.1 63.5Z" fill="#f2fdff" stroke="#f2fdff"></path><path d="M711.3 313.2L709.9 263.9L653.8 324.9Z" fill="#f9feff" stroke="#f9feff"></path><path d="M694.8 353.4L711.3 313.2L653.8 324.9Z" fill="#fbfeff" stroke="#fbfeff"></path><path d="M601.2 498.5L647.4 475.5L600.4 480.7Z" fill="#f2fdff" stroke="#f2fdff"></path><path d="M638.8 441.5L667.9 451.4L640.2 381.4Z" fill="#f9feff" stroke="#f9feff"></path><path d="M767.5 349.4L762.2 324.1L711.3 313.2Z" fill="#f6feff" stroke="#f6feff"></path><path d="M694.5 511.7L647.4 475.5L601.2 498.5Z" fill="#fbfeff" stroke="#fbfeff"></path><path d="M647.4 475.5L667.9 451.4L638.8 441.5Z" fill="#f2fdff" stroke="#f2fdff"></path><path d="M147.8 343.4L149.8 343.1L146.7 337.2Z" fill="#fbfeff" stroke="#fbfeff"></path><path d="M157.1 469.8L219.2 498.5L224.2 376.4Z" fill="#fafeff" stroke="#fafeff"></path><path d="M149.8 343.1L184.8 307.9L146.7 337.2Z" fill="#f3fdff" stroke="#f3fdff"></path><path d="M146.7 337.2L184.8 307.9L132.1 321.1Z" fill="#f6feff" stroke="#f6feff"></path><path d="M149.8 343.1L145.1 344.9L189.1 363.4Z" fill="#f3fdff" stroke="#f3fdff"></path><path d="M132.1 321.1L191.7 266.6L168.7 240.8Z" fill="#fafeff" stroke="#fafeff"></path><path d="M477.7 14.2L434.9 0L435.1 34.3Z" fill="#ffffff" stroke="#ffffff"></path><path d="M435.1 34.3L378.6 0L377.7 64.5Z" fill="#fbfeff" stroke="#fbfeff"></path><path d="M709.9 263.9L703.8 185.5L643.4 252.1Z" fill="#f2fdff" stroke="#f2fdff"></path><path d="M118.5 336.9L145.1 344.9L146.7 337.2Z" fill="#fdffff" stroke="#fdffff"></path><path d="M146.7 337.2L145.1 344.9L147.8 343.4Z" fill="#feffff" stroke="#feffff"></path><path d="M147.8 343.4L145.1 344.9L149.8 343.1Z" fill="#ffffff" stroke="#ffffff"></path><path d="M340.3 0L363.9 85.3L377.7 64.5Z" fill="#ffffff" stroke="#ffffff"></path><path d="M252.8 126.6L162.8 114.3L174.7 186.5Z" fill="#f2fdff" stroke="#f2fdff"></path><path d="M138.1 155.3L159.5 183.6L139.7 140.2Z" fill="#ffffff" stroke="#ffffff"></path><path d="M174.7 186.5L159.5 183.6L168.7 240.8Z" fill="#f8feff" stroke="#f8feff"></path><path d="M667.9 451.4L710.9 380.1L640.2 381.4Z" fill="#fafeff" stroke="#fafeff"></path><path d="M434.9 0L378.6 0L435.1 34.3Z" fill="#feffff" stroke="#feffff"></path><path d="M145.8 432.7L224.2 376.4L189.1 363.4Z" fill="#feffff" stroke="#feffff"></path><path d="M219.2 498.5L284.5 549.5L308.9 513.5Z" fill="#fdffff" stroke="#fdffff"></path><path d="M308.9 513.5L284.5 549.5L330.8 511.5Z" fill="#fbfeff" stroke="#fbfeff"></path><path d="M380.6 520.5L464.9 600L500.3 524.8Z" fill="#f5fdff" stroke="#f5fdff"></path><path d="M629.2 93.2L570.8 23.3L580.1 107.2Z" fill="#fdffff" stroke="#fdffff"></path><path d="M477.7 14.2L500.7 -5.7L434.9 0Z" fill="#f9feff" stroke="#f9feff"></path><path d="M87.1 278.8L132.1 321.1L168.7 240.8Z" fill="#fdffff" stroke="#fdffff"></path><path d="M145.1 344.9L145.8 432.7L189.1 363.4Z" fill="#feffff" stroke="#feffff"></path><path d="M378.6 0L346.2 0L377.7 64.5Z" fill="#f3fdff" stroke="#f3fdff"></path><path d="M235.2 30.2L213.1 81.2L231.2 77.3Z" fill="#f8feff" stroke="#f8feff"></path><path d="M231.2 77.3L213.1 81.2L252.8 126.6Z" fill="#ffffff" stroke="#ffffff"></path><path d="M138.1 155.3L149.1 180.6L159.5 183.6Z" fill="#f2fdff" stroke="#f2fdff"></path><path d="M159.5 183.6L149.1 180.6L168.7 240.8Z" fill="#f6feff" stroke="#f6feff"></path><path d="M525.4 0L520.7 0L534.1 63.5Z" fill="#fbfeff" stroke="#fbfeff"></path><path d="M520.7 0L500.7 -5.7L477.7 14.2Z" fill="#fafeff" stroke="#fafeff"></path><path d="M434.9 0L390.6 -30.8L378.6 0Z" fill="#fbfeff" stroke="#fbfeff"></path><path d="M378.6 0L390.6 -30.8L346.2 0Z" fill="#fafeff" stroke="#fafeff"></path><path d="M390.6 -30.8L340.3 0L346.2 0Z" fill="#f9feff" stroke="#f9feff"></path><path d="M346.2 0L340.3 0L377.7 64.5Z" fill="#f6feff" stroke="#f6feff"></path><path d="M520.7 0L525.4 0L500.7 -5.7Z" fill="#feffff" stroke="#feffff"></path><path d="M531.8 0L525.4 0L534.1 63.5Z" fill="#fafeff" stroke="#fafeff"></path><path d="M570.8 23.3L531.8 0L534.1 63.5Z" fill="#fafeff" stroke="#fafeff"></path><path d="M525.4 0L531.8 0L500.7 -5.7Z" fill="#fafeff" stroke="#fafeff"></path><path d="M744.3 188.8L717.5 172.6L703.8 185.5Z" fill="#f8feff" stroke="#f8feff"></path><path d="M703.8 185.5L692.8 99.2L638.4 190.5Z" fill="#ffffff" stroke="#ffffff"></path><path d="M605.2 0L588.1 0L570.8 23.3Z" fill="#f9feff" stroke="#f9feff"></path><path d="M744.3 188.8L703.8 185.5L709.9 263.9Z" fill="#f8feff" stroke="#f8feff"></path><path d="M744.3 188.8L709.9 263.9L801.6 219.5Z" fill="#fafeff" stroke="#fafeff"></path><path d="M309.6 638.8L464.9 600L380.6 520.5Z" fill="#ffffff" stroke="#ffffff"></path><path d="M500.3 524.8L563.2 600L545.8 493.7Z" fill="#f9feff" stroke="#f9feff"></path><path d="M589.2 505.8L617.5 575.8L601.2 498.5Z" fill="#f2fdff" stroke="#f2fdff"></path><path d="M464.9 600L468.4 600L500.3 524.8Z" fill="#fafeff" stroke="#fafeff"></path><path d="M468.4 600L496.1 596.8L500.3 524.8Z" fill="#f8feff" stroke="#f8feff"></path><path d="M87.1 278.8L118.5 336.9L132.1 321.1Z" fill="#f9feff" stroke="#f9feff"></path><path d="M132.1 321.1L118.5 336.9L146.7 337.2Z" fill="#f3fdff" stroke="#f3fdff"></path><path d="M468.4 600L496.3 600L496.1 596.8Z" fill="#fbfeff" stroke="#fbfeff"></path><path d="M496.1 596.8L532.7 600L500.3 524.8Z" fill="#f2fdff" stroke="#f2fdff"></path><path d="M111.5 370.4L145.8 432.7L145.1 344.9Z" fill="#f2fdff" stroke="#f2fdff"></path><path d="M213.1 81.2L162.8 114.3L252.8 126.6Z" fill="#fbfeff" stroke="#fbfeff"></path><path d="M139.7 140.2L159.5 183.6L174.7 186.5Z" fill="#fafeff" stroke="#fafeff"></path><path d="M149.1 180.6L87.1 278.8L168.7 240.8Z" fill="#f2fdff" stroke="#f2fdff"></path><path d="M500.7 -5.7L390.6 -30.8L434.9 0Z" fill="#feffff" stroke="#feffff"></path><path d="M588.1 0L390.6 -30.8L500.7 -5.7Z" fill="#f8feff" stroke="#f8feff"></path><path d="M717.5 172.6L692.8 99.2L703.8 185.5Z" fill="#f8feff" stroke="#f8feff"></path><path d="M340.3 0L235.2 30.2L306.8 102.2Z" fill="#feffff" stroke="#feffff"></path><path d="M213.1 81.2L109.5 27.2L162.8 114.3Z" fill="#f5fdff" stroke="#f5fdff"></path><path d="M195.8 0L235.2 30.2L340.3 0Z" fill="#fdffff" stroke="#fdffff"></path><path d="M496.3 600L532.7 600L496.1 596.8Z" fill="#feffff" stroke="#feffff"></path><path d="M131.5 129.3L139.7 140.2L162.8 114.3Z" fill="#f2fdff" stroke="#f2fdff"></path><path d="M162.8 114.3L139.7 140.2L174.7 186.5Z" fill="#fafeff" stroke="#fafeff"></path><path d="M69.7 354.9L111.5 370.4L118.5 336.9Z" fill="#ffffff" stroke="#ffffff"></path><path d="M145.8 432.7L157.1 469.8L224.2 376.4Z" fill="#f3fdff" stroke="#f3fdff"></path><path d="M220.8 600L280.6 600L284.5 549.5Z" fill="#fdffff" stroke="#fdffff"></path><path d="M762.2 324.1L709.9 263.9L711.3 313.2Z" fill="#f5fdff" stroke="#f5fdff"></path><path d="M717.5 172.6L731.3 151.5L692.8 99.2Z" fill="#f6feff" stroke="#f6feff"></path><path d="M570.8 23.3L588.1 0L531.8 0Z" fill="#f9feff" stroke="#f9feff"></path><path d="M531.8 0L588.1 0L500.7 -5.7Z" fill="#f8feff" stroke="#f8feff"></path><path d="M605.2 0L570.8 23.3L629.2 93.2Z" fill="#fafeff" stroke="#fafeff"></path><path d="M756.2 169.5L731.3 151.5L717.5 172.6Z" fill="#f3fdff" stroke="#f3fdff"></path><path d="M87.1 278.8L34.7 230.1L50.1 270.2Z" fill="#f3fdff" stroke="#f3fdff"></path><path d="M118.5 336.9L111.5 370.4L145.1 344.9Z" fill="#feffff" stroke="#feffff"></path><path d="M145.8 432.7L132.4 431.7L157.1 469.8Z" fill="#f3fdff" stroke="#f3fdff"></path><path d="M111.5 370.4L132.4 431.7L145.8 432.7Z" fill="#fafeff" stroke="#fafeff"></path><path d="M767.5 349.4L694.8 353.4L710.9 380.1Z" fill="#f2fdff" stroke="#f2fdff"></path><path d="M767.5 349.4L711.3 313.2L694.8 353.4Z" fill="#f9feff" stroke="#f9feff"></path><path d="M756.2 169.5L733.2 146.6L731.3 151.5Z" fill="#f5fdff" stroke="#f5fdff"></path><path d="M731.3 151.5L733.2 146.6L692.8 99.2Z" fill="#ffffff" stroke="#ffffff"></path><path d="M532.7 600L563.2 600L500.3 524.8Z" fill="#f9feff" stroke="#f9feff"></path><path d="M647.4 475.5L694.5 511.7L667.9 451.4Z" fill="#f8feff" stroke="#f8feff"></path><path d="M759.5 419.1L767.5 349.4L710.9 380.1Z" fill="#fbfeff" stroke="#fbfeff"></path><path d="M649.5 0L605.2 0L629.2 93.2Z" fill="#f6feff" stroke="#f6feff"></path><path d="M588.1 0L605.2 0L390.6 -30.8Z" fill="#feffff" stroke="#feffff"></path><path d="M109.5 27.2L131.5 129.3L162.8 114.3Z" fill="#fbfeff" stroke="#fbfeff"></path><path d="M139.7 140.2L131.5 129.3L138.1 155.3Z" fill="#f5fdff" stroke="#f5fdff"></path><path d="M733.2 146.6L715.9 102.3L692.8 99.2Z" fill="#fafeff" stroke="#fafeff"></path><path d="M692.9 25.2L649.5 0L629.2 93.2Z" fill="#fafeff" stroke="#fafeff"></path><path d="M759.5 419.1L710.9 380.1L667.9 451.4Z" fill="#f9feff" stroke="#f9feff"></path><path d="M801.6 219.5L756.2 169.5L744.3 188.8Z" fill="#ffffff" stroke="#ffffff"></path><path d="M563.2 600L617.5 575.8L589.2 505.8Z" fill="#f6feff" stroke="#f6feff"></path><path d="M617.5 575.8L694.5 511.7L601.2 498.5Z" fill="#f2fdff" stroke="#f2fdff"></path><path d="M87.1 278.8L149.1 180.6L68.1 166.5Z" fill="#f2fdff" stroke="#f2fdff"></path><path d="M206.8 582.8L284.5 549.5L219.2 498.5Z" fill="#fdffff" stroke="#fdffff"></path><path d="M284.5 549.5L280.6 600L380.6 520.5Z" fill="#f5fdff" stroke="#f5fdff"></path><path d="M108.5 460.7L144.4 481.5L157.1 469.8Z" fill="#fafeff" stroke="#fafeff"></path><path d="M157.1 469.8L144.4 481.5L219.2 498.5Z" fill="#fafeff" stroke="#fafeff"></path><path d="M108.5 460.7L157.1 469.8L132.4 431.7Z" fill="#fbfeff" stroke="#fbfeff"></path><path d="M744.3 188.8L756.2 169.5L717.5 172.6Z" fill="#fdffff" stroke="#fdffff"></path><path d="M733.2 146.6L754.5 134.2L715.9 102.3Z" fill="#ffffff" stroke="#ffffff"></path><path d="M782.5 300.9L709.9 263.9L762.2 324.1Z" fill="#f2fdff" stroke="#f2fdff"></path><path d="M767.5 349.4L782.5 300.9L762.2 324.1Z" fill="#f9feff" stroke="#f9feff"></path><path d="M739.3 479.4L759.5 419.1L667.9 451.4Z" fill="#fafeff" stroke="#fafeff"></path><path d="M767.5 349.4L813.3 359.9L782.5 300.9Z" fill="#f9feff" stroke="#f9feff"></path><path d="M468.4 600L500.7 638.8L496.3 600Z" fill="#ffffff" stroke="#ffffff"></path><path d="M496.3 600L500.7 638.8L532.7 600Z" fill="#fdffff" stroke="#fdffff"></path><path d="M532.7 600L500.7 638.8L563.2 600Z" fill="#fdffff" stroke="#fdffff"></path><path d="M563.2 600L610.5 600L617.5 575.8Z" fill="#f9feff" stroke="#f9feff"></path><path d="M464.9 600L500.7 638.8L468.4 600Z" fill="#f6feff" stroke="#f6feff"></path><path d="M309.6 638.8L500.7 638.8L464.9 600Z" fill="#feffff" stroke="#feffff"></path><path d="M500.7 638.8L610.5 600L563.2 600Z" fill="#fafeff" stroke="#fafeff"></path><path d="M617.5 575.8L697.5 548.5L694.5 511.7Z" fill="#feffff" stroke="#feffff"></path><path d="M787.5 124.3L754.5 134.2L756.2 169.5Z" fill="#f6feff" stroke="#f6feff"></path><path d="M756.2 169.5L754.5 134.2L733.2 146.6Z" fill="#fdffff" stroke="#fdffff"></path><path d="M692.9 25.2L629.2 93.2L692.8 99.2Z" fill="#f8feff" stroke="#f8feff"></path><path d="M500.7 638.8L610.8 600L610.5 600Z" fill="#fdffff" stroke="#fdffff"></path><path d="M610.5 600L610.8 600L617.5 575.8Z" fill="#f5fdff" stroke="#f5fdff"></path><path d="M500.7 638.8L615.1 600L610.8 600Z" fill="#f9feff" stroke="#f9feff"></path><path d="M610.8 600L615.1 600L617.5 575.8Z" fill="#fbfeff" stroke="#fbfeff"></path><path d="M730.3 520.8L739.3 479.4L694.5 511.7Z" fill="#f9feff" stroke="#f9feff"></path><path d="M694.5 511.7L739.3 479.4L667.9 451.4Z" fill="#f8feff" stroke="#f8feff"></path><path d="M692.9 25.2L692.8 99.2L715.9 102.3Z" fill="#f2fdff" stroke="#f2fdff"></path><path d="M605.2 0L900 -41.8L390.6 -30.8Z" fill="#f3fdff" stroke="#f3fdff"></path><path d="M55.1 413.5L108.5 460.7L132.4 431.7Z" fill="#fdffff" stroke="#fdffff"></path><path d="M127.4 506.4L206.8 582.8L219.2 498.5Z" fill="#ffffff" stroke="#ffffff"></path><path d="M55.1 413.5L132.4 431.7L111.5 370.4Z" fill="#fdffff" stroke="#fdffff"></path><path d="M87.1 278.8L69.7 354.9L118.5 336.9Z" fill="#f6feff" stroke="#f6feff"></path><path d="M127.4 506.4L219.2 498.5L144.4 481.5Z" fill="#fdffff" stroke="#fdffff"></path><path d="M238.2 629.8L309.6 638.8L280.6 600Z" fill="#ffffff" stroke="#ffffff"></path><path d="M280.6 600L309.6 638.8L380.6 520.5Z" fill="#f8feff" stroke="#f8feff"></path><path d="M683.8 609.8L697.5 548.5L617.5 575.8Z" fill="#f3fdff" stroke="#f3fdff"></path><path d="M779.6 61.2L692.9 25.2L715.9 102.3Z" fill="#fafeff" stroke="#fafeff"></path><path d="M390.6 -30.8L195.8 0L340.3 0Z" fill="#f3fdff" stroke="#f3fdff"></path><path d="M235.2 30.2L195.8 0L213.1 81.2Z" fill="#f5fdff" stroke="#f5fdff"></path><path d="M108.5 460.7L127.4 506.4L144.4 481.5Z" fill="#fbfeff" stroke="#fbfeff"></path><path d="M208.2 600L220.8 600L206.8 582.8Z" fill="#f2fdff" stroke="#f2fdff"></path><path d="M206.8 582.8L220.8 600L284.5 549.5Z" fill="#f8feff" stroke="#f8feff"></path><path d="M782.5 300.9L801.6 219.5L709.9 263.9Z" fill="#feffff" stroke="#feffff"></path><path d="M828.3 232.6L801.6 219.5L782.5 300.9Z" fill="#f2fdff" stroke="#f2fdff"></path><path d="M697.5 548.5L730.3 520.8L694.5 511.7Z" fill="#f3fdff" stroke="#f3fdff"></path><path d="M822.9 399.2L805.6 383.5L759.5 419.1Z" fill="#fafeff" stroke="#fafeff"></path><path d="M68.1 166.5L149.1 180.6L138.1 155.3Z" fill="#f8feff" stroke="#f8feff"></path><path d="M87.1 278.8L29.4 325.2L69.7 354.9Z" fill="#fbfeff" stroke="#fbfeff"></path><path d="M68.1 166.5L138.1 155.3L131.5 129.3Z" fill="#fbfeff" stroke="#fbfeff"></path><path d="M186.5 600L208.2 600L206.8 582.8Z" fill="#f3fdff" stroke="#f3fdff"></path><path d="M220.8 600L238.2 629.8L280.6 600Z" fill="#fdffff" stroke="#fdffff"></path><path d="M56.4 163.8L68.1 166.5L131.5 129.3Z" fill="#f5fdff" stroke="#f5fdff"></path><path d="M822.9 399.2L759.5 419.1L845.6 449.2Z" fill="#f3fdff" stroke="#f3fdff"></path><path d="M759.5 419.1L805.6 383.5L767.5 349.4Z" fill="#f9feff" stroke="#f9feff"></path><path d="M805.6 383.5L813.3 359.9L767.5 349.4Z" fill="#fafeff" stroke="#fafeff"></path><path d="M208.2 600L238.2 629.8L220.8 600Z" fill="#f6feff" stroke="#f6feff"></path><path d="M821.9 134.8L787.5 124.3L756.2 169.5Z" fill="#fafeff" stroke="#fafeff"></path><path d="M754.5 134.2L779.6 61.2L715.9 102.3Z" fill="#f6feff" stroke="#f6feff"></path><path d="M109.1 557.7L186.5 600L206.8 582.8Z" fill="#f5fdff" stroke="#f5fdff"></path><path d="M208.2 600L186.5 600L238.2 629.8Z" fill="#f8feff" stroke="#f8feff"></path><path d="M16.7 79.3L56.4 163.8L131.5 129.3Z" fill="#fbfeff" stroke="#fbfeff"></path><path d="M68.1 166.5L34.7 230.1L87.1 278.8Z" fill="#f5fdff" stroke="#f5fdff"></path><path d="M108.5 460.7L72.7 464.5L127.4 506.4Z" fill="#f9feff" stroke="#f9feff"></path><path d="M127.4 506.4L109.1 557.7L206.8 582.8Z" fill="#f2fdff" stroke="#f2fdff"></path><path d="M69.7 354.9L55.1 413.5L111.5 370.4Z" fill="#feffff" stroke="#feffff"></path><path d="M0 386.2L55.1 413.5L69.7 354.9Z" fill="#feffff" stroke="#feffff"></path><path d="M55.1 413.5L72.7 464.5L108.5 460.7Z" fill="#fdffff" stroke="#fdffff"></path><path d="M856.6 240.6L828.3 232.6L782.5 300.9Z" fill="#f8feff" stroke="#f8feff"></path><path d="M801.6 219.5L832.6 197.9L756.2 169.5Z" fill="#f9feff" stroke="#f9feff"></path><path d="M29.4 220.5L34.7 230.1L27.4 207.6Z" fill="#fafeff" stroke="#fafeff"></path><path d="M50.1 270.2L29.4 325.2L87.1 278.8Z" fill="#fbfeff" stroke="#fbfeff"></path><path d="M0 276.8L29.4 325.2L50.1 270.2Z" fill="#ffffff" stroke="#ffffff"></path><path d="M805.6 383.5L822.9 399.2L813.3 359.9Z" fill="#fbfeff" stroke="#fbfeff"></path><path d="M894.3 287.1L856.6 240.6L782.5 300.9Z" fill="#f5fdff" stroke="#f5fdff"></path><path d="M805.3 495.5L759.5 419.1L739.3 479.4Z" fill="#f5fdff" stroke="#f5fdff"></path><path d="M697.5 548.5L741.2 578.7L730.3 520.8Z" fill="#feffff" stroke="#feffff"></path><path d="M730.3 520.8L805.3 495.5L739.3 479.4Z" fill="#fdffff" stroke="#fdffff"></path><path d="M615.1 600L683.8 609.8L617.5 575.8Z" fill="#f5fdff" stroke="#f5fdff"></path><path d="M500.7 638.8L683.8 609.8L615.1 600Z" fill="#fafeff" stroke="#fafeff"></path><path d="M27.4 207.6L34.7 230.1L68.1 166.5Z" fill="#f2fdff" stroke="#f2fdff"></path><path d="M34.7 230.1L0 276.8L50.1 270.2Z" fill="#f6feff" stroke="#f6feff"></path><path d="M854.6 201.8L832.6 197.9L828.3 232.6Z" fill="#fdffff" stroke="#fdffff"></path><path d="M828.3 232.6L832.6 197.9L801.6 219.5Z" fill="#f3fdff" stroke="#f3fdff"></path><path d="M56.4 163.8L27.4 207.6L68.1 166.5Z" fill="#fbfeff" stroke="#fbfeff"></path><path d="M0 228.1L0 276.8L34.7 230.1Z" fill="#fbfeff" stroke="#fbfeff"></path><path d="M195.8 0L109.5 27.2L213.1 81.2Z" fill="#feffff" stroke="#feffff"></path><path d="M-15.6 178.9L0 228.1L27.4 207.6Z" fill="#ffffff" stroke="#ffffff"></path><path d="M787.5 124.3L779.6 61.2L754.5 134.2Z" fill="#f6feff" stroke="#f6feff"></path><path d="M692.9 25.2L748.3 0L649.5 0Z" fill="#f3fdff" stroke="#f3fdff"></path><path d="M827.9 100.6L779.6 61.2L787.5 124.3Z" fill="#fdffff" stroke="#fdffff"></path><path d="M683.8 609.8L723.9 589.8L697.5 548.5Z" fill="#f6feff" stroke="#f6feff"></path><path d="M90.5 547.8L109.1 557.7L127.4 506.4Z" fill="#ffffff" stroke="#ffffff"></path><path d="M186.5 600L118.7 600L238.2 629.8Z" fill="#f6feff" stroke="#f6feff"></path><path d="M836.3 153.3L821.9 134.8L756.2 169.5Z" fill="#f2fdff" stroke="#f2fdff"></path><path d="M723.9 589.8L741.2 578.7L697.5 548.5Z" fill="#f5fdff" stroke="#f5fdff"></path><path d="M791.3 547.7L805.3 495.5L730.3 520.8Z" fill="#fbfeff" stroke="#fbfeff"></path><path d="M854.6 201.8L836.3 153.3L832.6 197.9Z" fill="#feffff" stroke="#feffff"></path><path d="M832.6 197.9L836.3 153.3L756.2 169.5Z" fill="#feffff" stroke="#feffff"></path><path d="M821.9 134.8L823.3 115.2L787.5 124.3Z" fill="#fafeff" stroke="#fafeff"></path><path d="M894.3 287.1L900 319.9L900 290.1Z" fill="#ffffff" stroke="#ffffff"></path><path d="M894.3 287.1L782.5 300.9L813.3 359.9Z" fill="#fdffff" stroke="#fdffff"></path><path d="M31.7 584.7L90.5 547.8L0 575.8Z" fill="#fbfeff" stroke="#fbfeff"></path><path d="M72.7 464.5L90.5 547.8L127.4 506.4Z" fill="#f3fdff" stroke="#f3fdff"></path><path d="M109.1 557.7L118.7 600L186.5 600Z" fill="#feffff" stroke="#feffff"></path><path d="M8.7 434.4L72.7 464.5L55.1 413.5Z" fill="#fbfeff" stroke="#fbfeff"></path><path d="M840.9 108.5L823.3 115.2L821.9 134.8Z" fill="#ffffff" stroke="#ffffff"></path><path d="M756.9 0L748.3 0L779.6 61.2Z" fill="#fafeff" stroke="#fafeff"></path><path d="M779.6 61.2L748.3 0L692.9 25.2Z" fill="#fafeff" stroke="#fafeff"></path><path d="M649.5 0L900 -41.8L605.2 0Z" fill="#f5fdff" stroke="#f5fdff"></path><path d="M0 228.1L34.7 230.1L29.4 220.5Z" fill="#f5fdff" stroke="#f5fdff"></path><path d="M29.4 325.2L0 361.5L69.7 354.9Z" fill="#ffffff" stroke="#ffffff"></path><path d="M840.9 108.5L827.9 100.6L823.3 115.2Z" fill="#f9feff" stroke="#f9feff"></path><path d="M856.6 240.6L854.6 201.8L828.3 232.6Z" fill="#f8feff" stroke="#f8feff"></path><path d="M900 0L756.9 0L779.6 61.2Z" fill="#feffff" stroke="#feffff"></path><path d="M748.3 0L900 -41.8L649.5 0Z" fill="#f2fdff" stroke="#f2fdff"></path><path d="M0 276.8L0 348.9L29.4 325.2Z" fill="#fbfeff" stroke="#fbfeff"></path><path d="M27.4 207.6L0 228.1L29.4 220.5Z" fill="#f5fdff" stroke="#f5fdff"></path><path d="M0 171.5L27.4 207.6L56.4 163.8Z" fill="#fdffff" stroke="#fdffff"></path><path d="M0 348.9L0 361.5L29.4 325.2Z" fill="#fdffff" stroke="#fdffff"></path><path d="M840.9 108.5L821.9 134.8L836.3 153.3Z" fill="#f6feff" stroke="#f6feff"></path><path d="M823.3 115.2L827.9 100.6L787.5 124.3Z" fill="#feffff" stroke="#feffff"></path><path d="M116.1 600L118.7 600L109.1 557.7Z" fill="#f3fdff" stroke="#f3fdff"></path><path d="M195.8 0L99.1 0L109.5 27.2Z" fill="#f9feff" stroke="#f9feff"></path><path d="M0 143.6L0 171.5L56.4 163.8Z" fill="#f9feff" stroke="#f9feff"></path><path d="M0.4 -25.8L99.1 0L195.8 0Z" fill="#f3fdff" stroke="#f3fdff"></path><path d="M0 361.5L0 386.2L69.7 354.9Z" fill="#fbfeff" stroke="#fbfeff"></path><path d="M90.5 547.8L116.1 600L109.1 557.7Z" fill="#fbfeff" stroke="#fbfeff"></path><path d="M43.4 600L116.1 600L90.5 547.8Z" fill="#f9feff" stroke="#f9feff"></path><path d="M118.7 600L116.1 600L238.2 629.8Z" fill="#f2fdff" stroke="#f2fdff"></path><path d="M741.2 578.7L791.3 547.7L730.3 520.8Z" fill="#fafeff" stroke="#fafeff"></path><path d="M758.9 606.7L791.3 547.7L741.2 578.7Z" fill="#f5fdff" stroke="#f5fdff"></path><path d="M0.4 -25.8L95.5 0L99.1 0Z" fill="#feffff" stroke="#feffff"></path><path d="M99.1 0L95.5 0L109.5 27.2Z" fill="#ffffff" stroke="#ffffff"></path><path d="M900 518.7L845.6 449.2L805.3 495.5Z" fill="#f6feff" stroke="#f6feff"></path><path d="M805.3 495.5L845.6 449.2L759.5 419.1Z" fill="#f6feff" stroke="#f6feff"></path><path d="M0 228.1L-13.6 263.1L0 276.8Z" fill="#fafeff" stroke="#fafeff"></path><path d="M0 276.8L-13.6 263.1L0 348.9Z" fill="#fdffff" stroke="#fdffff"></path><path d="M0 348.9L-13.6 263.1L0 361.5Z" fill="#f8feff" stroke="#f8feff"></path><path d="M0 361.5L-13.6 263.1L0 386.2Z" fill="#feffff" stroke="#feffff"></path><path d="M0 386.2L8.7 434.4L55.1 413.5Z" fill="#f9feff" stroke="#f9feff"></path><path d="M0 143.6L56.4 163.8L16.7 79.3Z" fill="#fafeff" stroke="#fafeff"></path><path d="M0 228.1L-15.6 178.9L-13.6 263.1Z" fill="#f3fdff" stroke="#f3fdff"></path><path d="M900 131.8L840.9 108.5L836.3 153.3Z" fill="#ffffff" stroke="#ffffff"></path><path d="M827.9 100.6L900 0L779.6 61.2Z" fill="#fdffff" stroke="#fdffff"></path><path d="M0.4 -25.8L84.7 0L95.5 0Z" fill="#f9feff" stroke="#f9feff"></path><path d="M95.5 0L84.7 0L109.5 27.2Z" fill="#fbfeff" stroke="#fbfeff"></path><path d="M16.7 79.3L131.5 129.3L109.5 27.2Z" fill="#f2fdff" stroke="#f2fdff"></path><path d="M0 171.5L-15.6 178.9L27.4 207.6Z" fill="#fdffff" stroke="#fdffff"></path><path d="M723.9 589.8L758.9 606.7L741.2 578.7Z" fill="#fbfeff" stroke="#fbfeff"></path><path d="M791.3 547.7L821.9 539.5L805.3 495.5Z" fill="#f9feff" stroke="#f9feff"></path><path d="M683.8 609.8L758.9 606.7L723.9 589.8Z" fill="#ffffff" stroke="#ffffff"></path><path d="M500.7 638.8L758.9 606.7L683.8 609.8Z" fill="#fafeff" stroke="#fafeff"></path><path d="M0 386.2L0 445.7L8.7 434.4Z" fill="#f8feff" stroke="#f8feff"></path><path d="M8.7 434.4L0 448.4L72.7 464.5Z" fill="#feffff" stroke="#feffff"></path><path d="M-27.6 590.8L0 445.7L0 386.2Z" fill="#f9feff" stroke="#f9feff"></path><path d="M-27.6 590.8L0 448.4L0 445.7Z" fill="#f8feff" stroke="#f8feff"></path><path d="M0 445.7L0 448.4L8.7 434.4Z" fill="#fafeff" stroke="#fafeff"></path><path d="M0 143.6L-15.6 178.9L0 171.5Z" fill="#ffffff" stroke="#ffffff"></path><path d="M894.3 287.1L813.3 359.9L900 319.9Z" fill="#fdffff" stroke="#fdffff"></path><path d="M856.6 240.6L900 165.6L854.6 201.8Z" fill="#fbfeff" stroke="#fbfeff"></path><path d="M854.6 201.8L900 165.6L836.3 153.3Z" fill="#fafeff" stroke="#fafeff"></path><path d="M834.9 600L821.9 539.5L791.3 547.7Z" fill="#feffff" stroke="#feffff"></path><path d="M900 319.9L813.3 359.9L900 322.2Z" fill="#f2fdff" stroke="#f2fdff"></path><path d="M13.4 63.3L16.7 79.3L109.5 27.2Z" fill="#fafeff" stroke="#fafeff"></path><path d="M0 143.6L0 58.3L-15.6 178.9Z" fill="#f9feff" stroke="#f9feff"></path><path d="M813.3 359.9L900 395.4L900 322.2Z" fill="#f3fdff" stroke="#f3fdff"></path><path d="M894.3 287.1L900 165.6L856.6 240.6Z" fill="#f3fdff" stroke="#f3fdff"></path><path d="M813.3 359.9L822.9 399.2L900 395.4Z" fill="#fbfeff" stroke="#fbfeff"></path><path d="M900 395.4L822.9 399.2L845.6 449.2Z" fill="#feffff" stroke="#feffff"></path><path d="M84.7 0L13.4 63.3L109.5 27.2Z" fill="#f8feff" stroke="#f8feff"></path><path d="M16.7 79.3L0 58.3L0 143.6Z" fill="#ffffff" stroke="#ffffff"></path><path d="M936.6 405.1L900 395.4L942.6 414.4Z" fill="#fbfeff" stroke="#fbfeff"></path><path d="M900 290.1L900 165.6L894.3 287.1Z" fill="#f9feff" stroke="#f9feff"></path><path d="M840.9 108.5L900 79.5L827.9 100.6Z" fill="#f5fdff" stroke="#f5fdff"></path><path d="M0 31.2L0 58.3L13.4 63.3Z" fill="#f3fdff" stroke="#f3fdff"></path><path d="M13.4 63.3L0 58.3L16.7 79.3Z" fill="#feffff" stroke="#feffff"></path><path d="M900 165.6L900 131.8L836.3 153.3Z" fill="#f5fdff" stroke="#f5fdff"></path><path d="M900 131.8L900 131.3L840.9 108.5Z" fill="#fafeff" stroke="#fafeff"></path><path d="M0 575.8L90.5 547.8L72.7 464.5Z" fill="#f9feff" stroke="#f9feff"></path><path d="M116.1 600L43.4 600L238.2 629.8Z" fill="#fafeff" stroke="#fafeff"></path><path d="M31.7 584.7L43.4 600L90.5 547.8Z" fill="#fafeff" stroke="#fafeff"></path><path d="M84.7 0L0 31.2L13.4 63.3Z" fill="#feffff" stroke="#feffff"></path><path d="M0 58.3L-16.6 0L-15.6 178.9Z" fill="#f9feff" stroke="#f9feff"></path><path d="M758.9 606.7L834.9 600L791.3 547.7Z" fill="#f8feff" stroke="#f8feff"></path><path d="M923.6 464.8L900 395.4L845.6 449.2Z" fill="#fafeff" stroke="#fafeff"></path><path d="M845.6 600L834.9 600L758.9 606.7Z" fill="#fbfeff" stroke="#fbfeff"></path><path d="M900 131.3L900 79.5L840.9 108.5Z" fill="#f9feff" stroke="#f9feff"></path><path d="M856.3 600L845.6 600L758.9 606.7Z" fill="#f9feff" stroke="#f9feff"></path><path d="M834.9 600L845.6 600L821.9 539.5Z" fill="#f9feff" stroke="#f9feff"></path><path d="M0 448.4L0 575.8L72.7 464.5Z" fill="#f8feff" stroke="#f8feff"></path><path d="M31.7 584.7L10.7 594.8L43.4 600Z" fill="#f2fdff" stroke="#f2fdff"></path><path d="M-27.6 590.8L0 575.8L0 448.4Z" fill="#fbfeff" stroke="#fbfeff"></path><path d="M900 518.7L805.3 495.5L821.9 539.5Z" fill="#f9feff" stroke="#f9feff"></path><path d="M900 395.4L936.6 405.1L900 322.2Z" fill="#f3fdff" stroke="#f3fdff"></path><path d="M900 322.2L936.6 405.1L900 319.9Z" fill="#f9feff" stroke="#f9feff"></path><path d="M900 319.9L936.6 405.1L900 290.1Z" fill="#ffffff" stroke="#ffffff"></path><path d="M900 290.1L943.6 109.3L900 165.6Z" fill="#f6feff" stroke="#f6feff"></path><path d="M900 165.6L943.6 109.3L900 131.8Z" fill="#fdffff" stroke="#fdffff"></path><path d="M900 131.8L943.6 109.3L900 131.3Z" fill="#f5fdff" stroke="#f5fdff"></path><path d="M900 131.3L943.6 109.3L900 79.5Z" fill="#fafeff" stroke="#fafeff"></path><path d="M0.4 -25.8L0 0L84.7 0Z" fill="#f2fdff" stroke="#f2fdff"></path><path d="M84.7 0L0 0L0 31.2Z" fill="#fafeff" stroke="#fafeff"></path><path d="M0 31.2L-16.6 0L0 58.3Z" fill="#f8feff" stroke="#f8feff"></path><path d="M0 575.8L10.7 594.8L31.7 584.7Z" fill="#ffffff" stroke="#ffffff"></path><path d="M900 540.5L900 518.7L821.9 539.5Z" fill="#f6feff" stroke="#f6feff"></path><path d="M900 518.7L923.6 464.8L845.6 449.2Z" fill="#f6feff" stroke="#f6feff"></path><path d="M900 600L856.3 600L758.9 606.7Z" fill="#f8feff" stroke="#f8feff"></path><path d="M845.6 600L856.3 600L821.9 539.5Z" fill="#fdffff" stroke="#fdffff"></path><path d="M923.6 464.8L942.6 414.4L900 395.4Z" fill="#ffffff" stroke="#ffffff"></path><path d="M936.6 405.1L942.6 414.4L900 290.1Z" fill="#fbfeff" stroke="#fbfeff"></path><path d="M900 518.7L900 540.5L923.6 464.8Z" fill="#fdffff" stroke="#fdffff"></path><path d="M923.6 464.8L900 600L942.6 414.4Z" fill="#f9feff" stroke="#f9feff"></path><path d="M891.6 556.7L900 540.5L821.9 539.5Z" fill="#fdffff" stroke="#fdffff"></path><path d="M-27.6 590.8L0 600L0 575.8Z" fill="#f2fdff" stroke="#f2fdff"></path><path d="M0 575.8L0 600L10.7 594.8Z" fill="#ffffff" stroke="#ffffff"></path><path d="M10.7 594.8L0 600L43.4 600Z" fill="#f3fdff" stroke="#f3fdff"></path><path d="M43.4 600L0 600L238.2 629.8Z" fill="#f3fdff" stroke="#f3fdff"></path><path d="M238.2 629.8L0 600L309.6 638.8Z" fill="#fafeff" stroke="#fafeff"></path><path d="M856.3 600L891.6 556.7L821.9 539.5Z" fill="#fdffff" stroke="#fdffff"></path><path d="M0.4 -25.8L-16.6 0L0 0Z" fill="#f2fdff" stroke="#f2fdff"></path><path d="M0 0L-16.6 0L0 31.2Z" fill="#f5fdff" stroke="#f5fdff"></path><path d="M390.6 -30.8L0.4 -25.8L195.8 0Z" fill="#feffff" stroke="#feffff"></path><path d="M942.6 414.4L943.6 109.3L900 290.1Z" fill="#fdffff" stroke="#fdffff"></path><path d="M-13.6 263.1L-27.6 590.8L0 386.2Z" fill="#fbfeff" stroke="#fbfeff"></path><path d="M-15.6 178.9L-27.6 590.8L-13.6 263.1Z" fill="#f2fdff" stroke="#f2fdff"></path><path d="M-16.6 0L-27.6 590.8L-15.6 178.9Z" fill="#fafeff" stroke="#fafeff"></path><path d="M900 79.5L900 0L827.9 100.6Z" fill="#fbfeff" stroke="#fbfeff"></path><path d="M756.9 0L900 -41.8L748.3 0Z" fill="#f2fdff" stroke="#f2fdff"></path><path d="M939.6 0L900 0L900 79.5Z" fill="#f2fdff" stroke="#f2fdff"></path><path d="M856.3 600L900 583.8L891.6 556.7Z" fill="#feffff" stroke="#feffff"></path><path d="M891.6 556.7L900 583.8L900 540.5Z" fill="#f5fdff" stroke="#f5fdff"></path><path d="M900 540.5L900 583.8L923.6 464.8Z" fill="#f9feff" stroke="#f9feff"></path><path d="M500.7 638.8L900 600L758.9 606.7Z" fill="#f8feff" stroke="#f8feff"></path><path d="M856.3 600L900 600L900 583.8Z" fill="#ffffff" stroke="#ffffff"></path><path d="M900 583.8L900 600L923.6 464.8Z" fill="#f6feff" stroke="#f6feff"></path><path d="M939.6 0L900 -41.8L900 0Z" fill="#f3fdff" stroke="#f3fdff"></path><path d="M900 0L900 -41.8L756.9 0Z" fill="#fdffff" stroke="#fdffff"></path><path d="M390.6 -30.8L900 -41.8L0.4 -25.8Z" fill="#ffffff" stroke="#ffffff"></path><path d="M943.6 109.3L939.6 0L900 79.5Z" fill="#f5fdff" stroke="#f5fdff"></path></g></svg>