<svg id="visual" viewBox="0 0 960 540" width="960" height="540" xmlns="http://www.w3.org/2000/svg" xmlns:xlink="http://www.w3.org/1999/xlink" version="1.1"><g stroke-width="1" stroke-linejoin="bevel"><path d="M461.2 265.5L449.7 210.3L433.7 271.5Z" fill="#feffff" stroke="#feffff"></path><path d="M449.7 210.3L429.2 207.4L433.7 271.5Z" fill="#fdffff" stroke="#fdffff"></path><path d="M535.3 259.4L455.3 197.5L449.7 210.3Z" fill="#f5ffff" stroke="#f5ffff"></path><path d="M449.7 210.3L455.3 197.5L429.2 207.4Z" fill="#feffff" stroke="#feffff"></path><path d="M378.7 167.2L378.7 204.4L429.2 207.4Z" fill="#f7ffff" stroke="#f7ffff"></path><path d="M429.2 207.4L378.7 204.4L433.7 271.5Z" fill="#fdffff" stroke="#fdffff"></path><path d="M359.7 255.5L389.7 294.5L433.7 271.5Z" fill="#f6ffff" stroke="#f6ffff"></path><path d="M433.7 271.5L428.3 325.7L461.2 265.5Z" fill="#f6ffff" stroke="#f6ffff"></path><path d="M359.7 255.5L386.7 294.6L389.7 294.5Z" fill="#f6ffff" stroke="#f6ffff"></path><path d="M378.7 204.4L359.7 255.5L433.7 271.5Z" fill="#f6ffff" stroke="#f6ffff"></path><path d="M406.2 320.6L433.7 271.5L389.7 294.5Z" fill="#f5ffff" stroke="#f5ffff"></path><path d="M406.2 320.6L428.3 325.7L433.7 271.5Z" fill="#ffffff" stroke="#ffffff"></path><path d="M386.7 294.6L406.2 320.6L389.7 294.5Z" fill="#f6ffff" stroke="#f6ffff"></path><path d="M507.8 320.5L535.3 259.4L461.2 265.5Z" fill="#fcffff" stroke="#fcffff"></path><path d="M461.2 265.5L535.3 259.4L449.7 210.3Z" fill="#fcffff" stroke="#fcffff"></path><path d="M448.3 126.1L378.7 167.2L429.2 207.4Z" fill="#f9ffff" stroke="#f9ffff"></path><path d="M378.7 204.4L330.6 216.4L359.7 255.5Z" fill="#feffff" stroke="#feffff"></path><path d="M406.2 320.6L417.7 337.7L428.3 325.7Z" fill="#fdffff" stroke="#fdffff"></path><path d="M428.3 325.7L507.8 320.5L461.2 265.5Z" fill="#f9ffff" stroke="#f9ffff"></path><path d="M428.2 363.7L417.7 337.7L392.7 419.6Z" fill="#f8ffff" stroke="#f8ffff"></path><path d="M496.3 341.6L507.8 320.5L428.3 325.7Z" fill="#feffff" stroke="#feffff"></path><path d="M535.3 259.4L512.3 155.3L455.3 197.5Z" fill="#faffff" stroke="#faffff"></path><path d="M455.3 197.5L448.3 126.1L429.2 207.4Z" fill="#f8ffff" stroke="#f8ffff"></path><path d="M325.2 201.5L330.6 216.4L378.7 204.4Z" fill="#fdffff" stroke="#fdffff"></path><path d="M330.2 310.6L406.2 320.6L386.7 294.6Z" fill="#f6ffff" stroke="#f6ffff"></path><path d="M428.2 363.7L496.3 341.6L428.3 325.7Z" fill="#f7ffff" stroke="#f7ffff"></path><path d="M512.3 155.3L448.3 126.1L455.3 197.5Z" fill="#f7ffff" stroke="#f7ffff"></path><path d="M411.7 112.3L377.2 138.3L378.7 167.2Z" fill="#f8ffff" stroke="#f8ffff"></path><path d="M378.7 167.2L325.2 201.5L378.7 204.4Z" fill="#f7ffff" stroke="#f7ffff"></path><path d="M347.2 133.2L325.2 201.5L378.7 167.2Z" fill="#f6ffff" stroke="#f6ffff"></path><path d="M330.2 310.6L417.7 337.7L406.2 320.6Z" fill="#f6ffff" stroke="#f6ffff"></path><path d="M417.7 337.7L428.2 363.7L428.3 325.7Z" fill="#ffffff" stroke="#ffffff"></path><path d="M330.2 310.6L386.7 294.6L359.7 255.5Z" fill="#f8ffff" stroke="#f8ffff"></path><path d="M545.7 147.4L519.3 144.2L512.3 155.3Z" fill="#f5ffff" stroke="#f5ffff"></path><path d="M512.3 155.3L519.3 144.2L448.3 126.1Z" fill="#ffffff" stroke="#ffffff"></path><path d="M325.2 201.5L314.2 231.5L330.6 216.4Z" fill="#fdffff" stroke="#fdffff"></path><path d="M330.6 216.4L314.2 231.5L359.7 255.5Z" fill="#fdffff" stroke="#fdffff"></path><path d="M314.2 231.5L330.2 310.6L359.7 255.5Z" fill="#fcffff" stroke="#fcffff"></path><path d="M391.2 95.1L411.7 112.3L457.2 56.3Z" fill="#feffff" stroke="#feffff"></path><path d="M448.3 126.1L411.7 112.3L378.7 167.2Z" fill="#faffff" stroke="#faffff"></path><path d="M571.3 299.5L574.8 279.4L535.3 259.4Z" fill="#ffffff" stroke="#ffffff"></path><path d="M585.3 194.3L545.7 147.4L512.3 155.3Z" fill="#fbffff" stroke="#fbffff"></path><path d="M571.3 299.5L535.3 259.4L507.8 320.5Z" fill="#f5ffff" stroke="#f5ffff"></path><path d="M585.3 194.3L512.3 155.3L535.3 259.4Z" fill="#f8ffff" stroke="#f8ffff"></path><path d="M457.2 56.3L411.7 112.3L448.3 126.1Z" fill="#ffffff" stroke="#ffffff"></path><path d="M411.7 112.3L390.2 108.4L377.2 138.3Z" fill="#f7ffff" stroke="#f7ffff"></path><path d="M377.2 138.3L347.2 133.2L378.7 167.2Z" fill="#fbffff" stroke="#fbffff"></path><path d="M558.8 346.8L571.3 299.5L507.8 320.5Z" fill="#ffffff" stroke="#ffffff"></path><path d="M390.2 108.4L347.2 133.2L377.2 138.3Z" fill="#f6ffff" stroke="#f6ffff"></path><path d="M325.2 201.5L270.1 194.3L314.2 231.5Z" fill="#f9ffff" stroke="#f9ffff"></path><path d="M611.8 285.5L589.8 232.3L574.8 279.4Z" fill="#faffff" stroke="#faffff"></path><path d="M574.8 279.4L589.8 232.3L535.3 259.4Z" fill="#feffff" stroke="#feffff"></path><path d="M589.8 232.3L585.3 194.3L535.3 259.4Z" fill="#faffff" stroke="#faffff"></path><path d="M411.7 112.3L391.2 95.1L390.2 108.4Z" fill="#f8ffff" stroke="#f8ffff"></path><path d="M390.2 108.4L391.2 95.1L347.2 133.2Z" fill="#faffff" stroke="#faffff"></path><path d="M485.7 64.2L448.3 126.1L519.3 144.2Z" fill="#fdffff" stroke="#fdffff"></path><path d="M392.7 419.6L437.3 395.9L428.2 363.7Z" fill="#f6ffff" stroke="#f6ffff"></path><path d="M428.2 363.7L437.3 395.9L496.3 341.6Z" fill="#f5ffff" stroke="#f5ffff"></path><path d="M496.3 341.6L558.8 346.8L507.8 320.5Z" fill="#f8ffff" stroke="#f8ffff"></path><path d="M525.3 390.8L558.8 346.8L496.3 341.6Z" fill="#f5ffff" stroke="#f5ffff"></path><path d="M651.4 215.3L603.3 195.5L589.8 232.3Z" fill="#fbffff" stroke="#fbffff"></path><path d="M611.8 285.5L574.8 279.4L571.3 299.5Z" fill="#fbffff" stroke="#fbffff"></path><path d="M589.8 232.3L603.3 195.5L585.3 194.3Z" fill="#fdffff" stroke="#fdffff"></path><path d="M585.3 194.3L603.3 195.5L545.7 147.4Z" fill="#fbffff" stroke="#fbffff"></path><path d="M314.2 231.5L291.7 319.5L330.2 310.6Z" fill="#f5ffff" stroke="#f5ffff"></path><path d="M330.2 310.6L392.7 419.6L417.7 337.7Z" fill="#fcffff" stroke="#fcffff"></path><path d="M437.3 395.9L525.3 390.8L496.3 341.6Z" fill="#f7ffff" stroke="#f7ffff"></path><path d="M614.8 295.5L571.3 299.5L610.4 338.5Z" fill="#feffff" stroke="#feffff"></path><path d="M614.8 295.5L611.8 285.5L571.3 299.5Z" fill="#feffff" stroke="#feffff"></path><path d="M347.2 133.2L270.1 194.3L325.2 201.5Z" fill="#f9ffff" stroke="#f9ffff"></path><path d="M314.2 231.5L250.6 219.5L291.7 319.5Z" fill="#f8ffff" stroke="#f8ffff"></path><path d="M250.6 219.5L270.1 194.3L226.1 192.4Z" fill="#f6ffff" stroke="#f6ffff"></path><path d="M610.4 338.5L571.3 299.5L558.8 346.8Z" fill="#f7ffff" stroke="#f7ffff"></path><path d="M611.8 285.5L647.3 263.5L589.8 232.3Z" fill="#f9ffff" stroke="#f9ffff"></path><path d="M521.8 20.1L485.7 64.2L544.3 22.2Z" fill="#fcffff" stroke="#fcffff"></path><path d="M545.7 147.4L485.7 64.2L519.3 144.2Z" fill="#fcffff" stroke="#fcffff"></path><path d="M485.7 64.2L457.2 56.3L448.3 126.1Z" fill="#fcffff" stroke="#fcffff"></path><path d="M354.7 434.7L392.7 419.6L307.2 405.9Z" fill="#f6ffff" stroke="#f6ffff"></path><path d="M524.3 448.7L537.8 441.6L525.3 390.8Z" fill="#fdffff" stroke="#fdffff"></path><path d="M270.1 194.3L250.6 219.5L314.2 231.5Z" fill="#fbffff" stroke="#fbffff"></path><path d="M609.8 423.7L610.4 338.5L558.8 346.8Z" fill="#f7ffff" stroke="#f7ffff"></path><path d="M646.8 285.6L611.8 285.5L614.8 295.5Z" fill="#f9ffff" stroke="#f9ffff"></path><path d="M646.8 285.6L647.3 263.5L611.8 285.5Z" fill="#feffff" stroke="#feffff"></path><path d="M644.8 339.7L646.8 285.6L614.8 295.5Z" fill="#fcffff" stroke="#fcffff"></path><path d="M647.3 263.5L651.4 215.3L589.8 232.3Z" fill="#feffff" stroke="#feffff"></path><path d="M603.3 195.5L598.8 64.3L545.7 147.4Z" fill="#ffffff" stroke="#ffffff"></path><path d="M668.3 201.4L651.4 215.3L678.8 264.5Z" fill="#f7ffff" stroke="#f7ffff"></path><path d="M307.2 405.9L392.7 419.6L330.2 310.6Z" fill="#f7ffff" stroke="#f7ffff"></path><path d="M524.3 448.7L525.3 390.8L437.3 395.9Z" fill="#f9ffff" stroke="#f9ffff"></path><path d="M291.7 319.5L307.2 405.9L330.2 310.6Z" fill="#ffffff" stroke="#ffffff"></path><path d="M275.6 411.9L307.2 405.9L238.1 373.6Z" fill="#fdffff" stroke="#fdffff"></path><path d="M226.1 222.5L228.6 237.4L250.6 219.5Z" fill="#f5ffff" stroke="#f5ffff"></path><path d="M250.6 219.5L228.6 237.4L291.7 319.5Z" fill="#fdffff" stroke="#fdffff"></path><path d="M226.1 192.4L270.1 194.3L259.7 115.1Z" fill="#feffff" stroke="#feffff"></path><path d="M226.1 192.4L226.1 222.5L250.6 219.5Z" fill="#f8ffff" stroke="#f8ffff"></path><path d="M307.2 405.9L325.6 426.7L354.7 434.7Z" fill="#f6ffff" stroke="#f6ffff"></path><path d="M228.2 348.5L236.6 322.6L179.6 356.7Z" fill="#fdffff" stroke="#fdffff"></path><path d="M228.6 237.4L236.6 322.6L291.7 319.5Z" fill="#f7ffff" stroke="#f7ffff"></path><path d="M259.7 115.1L270.1 194.3L347.2 133.2Z" fill="#fbffff" stroke="#fbffff"></path><path d="M351.7 0L347.2 133.2L391.2 95.1Z" fill="#f8ffff" stroke="#f8ffff"></path><path d="M287.2 0L259.7 115.1L347.2 133.2Z" fill="#fbffff" stroke="#fbffff"></path><path d="M524.3 448.7L437.3 395.9L412.2 540Z" fill="#f6ffff" stroke="#f6ffff"></path><path d="M525.3 390.8L590.3 430.6L558.8 346.8Z" fill="#ffffff" stroke="#ffffff"></path><path d="M412.2 540L437.3 395.9L392.7 419.6Z" fill="#fdffff" stroke="#fdffff"></path><path d="M629.4 425.8L644.8 339.7L610.4 338.5Z" fill="#faffff" stroke="#faffff"></path><path d="M610.4 338.5L644.8 339.7L614.8 295.5Z" fill="#fcffff" stroke="#fcffff"></path><path d="M678.8 264.5L651.4 215.3L647.3 263.5Z" fill="#f7ffff" stroke="#f7ffff"></path><path d="M678.8 264.5L647.3 263.5L646.8 285.6Z" fill="#fbffff" stroke="#fbffff"></path><path d="M651.4 215.3L668.3 201.4L603.3 195.5Z" fill="#f9ffff" stroke="#f9ffff"></path><path d="M563.8 33.2L485.7 64.2L545.7 147.4Z" fill="#f7ffff" stroke="#f7ffff"></path><path d="M485.7 64.2L504.8 0L457.2 56.3Z" fill="#f5ffff" stroke="#f5ffff"></path><path d="M457.2 56.3L430.2 0L391.2 95.1Z" fill="#ffffff" stroke="#ffffff"></path><path d="M632.8 65.2L598.8 64.3L644.3 72.1Z" fill="#fdffff" stroke="#fdffff"></path><path d="M238.1 373.6L307.2 405.9L291.7 319.5Z" fill="#fbffff" stroke="#fbffff"></path><path d="M307.2 405.9L284.7 428.8L325.6 426.7Z" fill="#f8ffff" stroke="#f8ffff"></path><path d="M675.9 316.5L678.8 264.5L646.8 285.6Z" fill="#f9ffff" stroke="#f9ffff"></path><path d="M200.6 251.6L236.6 322.6L228.6 237.4Z" fill="#f7ffff" stroke="#f7ffff"></path><path d="M236.6 322.6L228.2 348.5L291.7 319.5Z" fill="#f9ffff" stroke="#f9ffff"></path><path d="M179.1 219.5L200.6 251.6L226.1 222.5Z" fill="#feffff" stroke="#feffff"></path><path d="M226.1 222.5L200.6 251.6L228.6 237.4Z" fill="#fdffff" stroke="#fdffff"></path><path d="M504.8 0L430.2 0L457.2 56.3Z" fill="#faffff" stroke="#faffff"></path><path d="M598.8 64.3L563.8 33.2L545.7 147.4Z" fill="#f9ffff" stroke="#f9ffff"></path><path d="M569.3 456.8L590.3 430.6L537.8 441.6Z" fill="#fbffff" stroke="#fbffff"></path><path d="M537.8 441.6L590.3 430.6L525.3 390.8Z" fill="#fdffff" stroke="#fdffff"></path><path d="M563.8 33.2L544.3 22.2L485.7 64.2Z" fill="#f5ffff" stroke="#f5ffff"></path><path d="M521.8 20.1L504.8 0L485.7 64.2Z" fill="#f5ffff" stroke="#f5ffff"></path><path d="M228.2 348.5L238.1 373.6L291.7 319.5Z" fill="#f5ffff" stroke="#f5ffff"></path><path d="M259.2 469.9L284.7 428.8L275.6 411.9Z" fill="#fdffff" stroke="#fdffff"></path><path d="M275.6 411.9L284.7 428.8L307.2 405.9Z" fill="#f9ffff" stroke="#f9ffff"></path><path d="M325.6 426.7L310.2 472.8L354.7 434.7Z" fill="#f9ffff" stroke="#f9ffff"></path><path d="M644.8 339.7L675.9 316.5L646.8 285.6Z" fill="#f5ffff" stroke="#f5ffff"></path><path d="M677.8 358.8L675.9 316.5L644.8 339.7Z" fill="#f8ffff" stroke="#f8ffff"></path><path d="M271.2 4.1L234.6 103.1L259.7 115.1Z" fill="#fcffff" stroke="#fcffff"></path><path d="M259.7 115.1L234.6 103.1L226.1 192.4Z" fill="#f5ffff" stroke="#f5ffff"></path><path d="M181.6 192.3L179.1 219.5L226.1 222.5Z" fill="#f6ffff" stroke="#f6ffff"></path><path d="M590.3 430.6L609.8 423.7L558.8 346.8Z" fill="#f9ffff" stroke="#f9ffff"></path><path d="M520.3 0L521.8 20.1L544.3 22.2Z" fill="#f8ffff" stroke="#f8ffff"></path><path d="M520.3 0L504.8 0L521.8 20.1Z" fill="#fbffff" stroke="#fbffff"></path><path d="M524.3 448.7L569.3 456.8L537.8 441.6Z" fill="#f8ffff" stroke="#f8ffff"></path><path d="M580.3 468.9L629.4 425.8L609.8 423.7Z" fill="#feffff" stroke="#feffff"></path><path d="M580.3 468.9L569.3 456.8L531.3 540Z" fill="#faffff" stroke="#faffff"></path><path d="M347.2 512.8L392.7 419.6L354.7 434.7Z" fill="#ffffff" stroke="#ffffff"></path><path d="M430.2 0L366.7 0L391.2 95.1Z" fill="#fcffff" stroke="#fcffff"></path><path d="M714.4 181.2L684.8 174.4L668.3 201.4Z" fill="#feffff" stroke="#feffff"></path><path d="M668.3 201.4L684.8 174.4L603.3 195.5Z" fill="#fbffff" stroke="#fbffff"></path><path d="M714.4 181.2L668.3 201.4L731.4 199.5Z" fill="#f5ffff" stroke="#f5ffff"></path><path d="M557.3 0L520.3 0L544.3 22.2Z" fill="#f7ffff" stroke="#f7ffff"></path><path d="M366.7 0L351.7 0L391.2 95.1Z" fill="#fcffff" stroke="#fcffff"></path><path d="M644.3 72.1L598.8 64.3L603.3 195.5Z" fill="#f6ffff" stroke="#f6ffff"></path><path d="M598.8 64.3L640.8 -12.9L563.8 33.2Z" fill="#f5ffff" stroke="#f5ffff"></path><path d="M563.8 33.2L557.3 0L544.3 22.2Z" fill="#fcffff" stroke="#fcffff"></path><path d="M181.6 192.3L226.1 222.5L226.1 192.4Z" fill="#f7ffff" stroke="#f7ffff"></path><path d="M200.6 251.6L179.6 356.7L236.6 322.6Z" fill="#f6ffff" stroke="#f6ffff"></path><path d="M580.3 468.9L609.8 423.7L590.3 430.6Z" fill="#f9ffff" stroke="#f9ffff"></path><path d="M609.8 423.7L629.4 425.8L610.4 338.5Z" fill="#f8ffff" stroke="#f8ffff"></path><path d="M684.8 174.4L644.3 72.1L603.3 195.5Z" fill="#fcffff" stroke="#fcffff"></path><path d="M180.6 114.2L181.6 192.3L226.1 192.4Z" fill="#f7ffff" stroke="#f7ffff"></path><path d="M668.4 398.9L677.8 358.8L644.8 339.7Z" fill="#fcffff" stroke="#fcffff"></path><path d="M731.4 199.5L668.3 201.4L678.8 264.5Z" fill="#faffff" stroke="#faffff"></path><path d="M259.2 469.9L310.2 472.8L284.7 428.8Z" fill="#fcffff" stroke="#fcffff"></path><path d="M284.7 428.8L310.2 472.8L325.6 426.7Z" fill="#fdffff" stroke="#fdffff"></path><path d="M531.3 540L569.3 456.8L524.3 448.7Z" fill="#fcffff" stroke="#fcffff"></path><path d="M569.3 456.8L580.3 468.9L590.3 430.6Z" fill="#feffff" stroke="#feffff"></path><path d="M640.8 -12.9L598.8 64.3L632.8 65.2Z" fill="#f6ffff" stroke="#f6ffff"></path><path d="M640.8 -12.9L557.3 0L563.8 33.2Z" fill="#feffff" stroke="#feffff"></path><path d="M310.2 472.8L316.2 479.7L354.7 434.7Z" fill="#f5ffff" stroke="#f5ffff"></path><path d="M678.4 386.6L668.4 398.9L743.9 435.7Z" fill="#f7ffff" stroke="#f7ffff"></path><path d="M629.4 425.8L668.4 398.9L644.8 339.7Z" fill="#fbffff" stroke="#fbffff"></path><path d="M668.4 398.9L678.4 386.6L677.8 358.8Z" fill="#fcffff" stroke="#fcffff"></path><path d="M731.4 199.5L678.8 264.5L809.4 309.7Z" fill="#feffff" stroke="#feffff"></path><path d="M678.8 264.5L675.9 316.5L809.4 309.7Z" fill="#fdffff" stroke="#fdffff"></path><path d="M684.8 174.4L710.4 84.3L644.3 72.1Z" fill="#ffffff" stroke="#ffffff"></path><path d="M557.3 0L516.7 -32.9L520.3 0Z" fill="#ffffff" stroke="#ffffff"></path><path d="M520.3 0L516.7 -32.9L504.8 0Z" fill="#faffff" stroke="#faffff"></path><path d="M504.8 0L516.7 -32.9L430.2 0Z" fill="#faffff" stroke="#faffff"></path><path d="M430.2 0L516.7 -32.9L366.7 0Z" fill="#f6ffff" stroke="#f6ffff"></path><path d="M366.7 0L516.7 -32.9L351.7 0Z" fill="#f7ffff" stroke="#f7ffff"></path><path d="M154.6 -44.9L287.2 0L351.7 0Z" fill="#f6ffff" stroke="#f6ffff"></path><path d="M351.7 0L287.2 0L347.2 133.2Z" fill="#f7ffff" stroke="#f7ffff"></path><path d="M234.6 103.1L180.6 114.2L226.1 192.4Z" fill="#f5ffff" stroke="#f5ffff"></path><path d="M228.2 348.5L183.6 381.5L238.1 373.6Z" fill="#faffff" stroke="#faffff"></path><path d="M238.1 373.6L259.2 469.9L275.6 411.9Z" fill="#f7ffff" stroke="#f7ffff"></path><path d="M310.2 472.8L288.1 540L316.2 479.7Z" fill="#f5ffff" stroke="#f5ffff"></path><path d="M112.1 342.8L179.6 356.7L200.6 251.6Z" fill="#faffff" stroke="#faffff"></path><path d="M343.7 540L347.2 512.8L311.6 540Z" fill="#f5ffff" stroke="#f5ffff"></path><path d="M316.2 479.7L347.2 512.8L354.7 434.7Z" fill="#f5ffff" stroke="#f5ffff"></path><path d="M169.1 100.1L180.6 114.2L234.6 103.1Z" fill="#f7ffff" stroke="#f7ffff"></path><path d="M181.6 192.3L111.6 218.5L179.1 219.5Z" fill="#fcffff" stroke="#fcffff"></path><path d="M287.2 0L271.2 4.1L259.7 115.1Z" fill="#f7ffff" stroke="#f7ffff"></path><path d="M183.6 381.5L259.2 469.9L238.1 373.6Z" fill="#fcffff" stroke="#fcffff"></path><path d="M718.4 363.6L675.9 316.5L677.8 358.8Z" fill="#f8ffff" stroke="#f8ffff"></path><path d="M745.9 117.1L710.4 84.3L684.8 174.4Z" fill="#fcffff" stroke="#fcffff"></path><path d="M179.6 356.7L183.6 381.5L228.2 348.5Z" fill="#f9ffff" stroke="#f9ffff"></path><path d="M401.7 540L412.2 540L392.7 419.6Z" fill="#ffffff" stroke="#ffffff"></path><path d="M347.2 512.8L401.7 540L392.7 419.6Z" fill="#f8ffff" stroke="#f8ffff"></path><path d="M377.7 540.8L401.7 540L347.2 512.8Z" fill="#fcffff" stroke="#fcffff"></path><path d="M721.4 374.7L718.4 363.6L678.4 386.6Z" fill="#f8ffff" stroke="#f8ffff"></path><path d="M678.4 386.6L718.4 363.6L677.8 358.8Z" fill="#fdffff" stroke="#fdffff"></path><path d="M721.4 374.7L678.4 386.6L743.9 435.7Z" fill="#f9ffff" stroke="#f9ffff"></path><path d="M180.1 29.1L169.1 100.1L234.6 103.1Z" fill="#f6ffff" stroke="#f6ffff"></path><path d="M180.6 114.2L125.1 158.5L181.6 192.3Z" fill="#f9ffff" stroke="#f9ffff"></path><path d="M179.1 219.5L111.6 218.5L200.6 251.6Z" fill="#fcffff" stroke="#fcffff"></path><path d="M343.7 540L377.7 540.8L347.2 512.8Z" fill="#ffffff" stroke="#ffffff"></path><path d="M401.7 540L421.7 559.9L412.2 540Z" fill="#f7ffff" stroke="#f7ffff"></path><path d="M743.9 435.7L668.4 398.9L629.4 425.8Z" fill="#f5ffff" stroke="#f5ffff"></path><path d="M787.4 141.1L779.9 137.4L803.4 160.2Z" fill="#f8ffff" stroke="#f8ffff"></path><path d="M137.5 71.1L162.6 103.2L169.1 100.1Z" fill="#fcffff" stroke="#fcffff"></path><path d="M169.1 100.1L162.6 103.2L180.6 114.2Z" fill="#ffffff" stroke="#ffffff"></path><path d="M745.9 117.1L684.8 174.4L714.4 181.2Z" fill="#f7ffff" stroke="#f7ffff"></path><path d="M644.3 72.1L640.8 -12.9L632.8 65.2Z" fill="#fcffff" stroke="#fcffff"></path><path d="M557.3 0L640.8 -12.9L516.7 -32.9Z" fill="#f8ffff" stroke="#f8ffff"></path><path d="M287.2 0L243.6 0L271.2 4.1Z" fill="#fdffff" stroke="#fdffff"></path><path d="M271.2 4.1L223.2 12.2L234.6 103.1Z" fill="#faffff" stroke="#faffff"></path><path d="M154.6 -44.9L243.6 0L287.2 0Z" fill="#f8ffff" stroke="#f8ffff"></path><path d="M461.8 577.9L528.8 540L412.2 540Z" fill="#ffffff" stroke="#ffffff"></path><path d="M412.2 540L528.8 540L524.3 448.7Z" fill="#f6ffff" stroke="#f6ffff"></path><path d="M580.3 468.9L656.4 540L629.4 425.8Z" fill="#f6ffff" stroke="#f6ffff"></path><path d="M461.8 577.9L531.3 540L528.8 540Z" fill="#fdffff" stroke="#fdffff"></path><path d="M528.8 540L531.3 540L524.3 448.7Z" fill="#f5ffff" stroke="#f5ffff"></path><path d="M311.6 540L347.2 512.8L316.2 479.7Z" fill="#f9ffff" stroke="#f9ffff"></path><path d="M243.6 0L223.2 12.2L271.2 4.1Z" fill="#f5ffff" stroke="#f5ffff"></path><path d="M401.7 574.9L401.7 540L377.7 540.8Z" fill="#feffff" stroke="#feffff"></path><path d="M401.7 574.9L421.7 559.9L401.7 540Z" fill="#f5ffff" stroke="#f5ffff"></path><path d="M713.8 0L640.8 -12.9L644.3 72.1Z" fill="#ffffff" stroke="#ffffff"></path><path d="M288.1 540L310.2 472.8L259.2 469.9Z" fill="#f6ffff" stroke="#f6ffff"></path><path d="M288.1 540L311.6 540L316.2 479.7Z" fill="#ffffff" stroke="#ffffff"></path><path d="M343.7 540L401.7 574.9L377.7 540.8Z" fill="#faffff" stroke="#faffff"></path><path d="M119.1 164.4L125.1 158.5L89.6 121.3Z" fill="#fdffff" stroke="#fdffff"></path><path d="M162.6 103.2L125.1 158.5L180.6 114.2Z" fill="#f8ffff" stroke="#f8ffff"></path><path d="M179.6 356.7L158.1 409.7L183.6 381.5Z" fill="#fbffff" stroke="#fbffff"></path><path d="M774.4 122.4L745.9 117.1L779.9 137.4Z" fill="#f7ffff" stroke="#f7ffff"></path><path d="M710.4 84.3L713.8 0L644.3 72.1Z" fill="#f6ffff" stroke="#f6ffff"></path><path d="M756.9 100.2L745.9 117.1L761.9 104.1Z" fill="#f7ffff" stroke="#f7ffff"></path><path d="M112.1 342.8L158.1 409.7L179.6 356.7Z" fill="#feffff" stroke="#feffff"></path><path d="M183.6 381.5L158.1 409.7L259.2 469.9Z" fill="#faffff" stroke="#faffff"></path><path d="M119.1 164.4L111.6 218.5L181.6 192.3Z" fill="#f8ffff" stroke="#f8ffff"></path><path d="M116.5 111.2L125.1 158.5L162.6 103.2Z" fill="#fbffff" stroke="#fbffff"></path><path d="M125.1 158.5L119.1 164.4L181.6 192.3Z" fill="#fcffff" stroke="#fcffff"></path><path d="M241.2 540L288.1 540L259.2 469.9Z" fill="#f7ffff" stroke="#f7ffff"></path><path d="M311.6 540L401.7 574.9L343.7 540Z" fill="#fdffff" stroke="#fdffff"></path><path d="M189.6 0L180.1 29.1L223.2 12.2Z" fill="#ffffff" stroke="#ffffff"></path><path d="M223.2 12.2L180.1 29.1L234.6 103.1Z" fill="#f8ffff" stroke="#f8ffff"></path><path d="M251.1 553.9L401.7 574.9L311.6 540Z" fill="#f5ffff" stroke="#f5ffff"></path><path d="M421.7 559.9L461.8 577.9L412.2 540Z" fill="#feffff" stroke="#feffff"></path><path d="M401.7 574.9L461.8 577.9L421.7 559.9Z" fill="#fbffff" stroke="#fbffff"></path><path d="M158.1 409.7L218.6 497.8L259.2 469.9Z" fill="#f6ffff" stroke="#f6ffff"></path><path d="M461.8 577.9L610.3 540L531.3 540Z" fill="#faffff" stroke="#faffff"></path><path d="M531.3 540L610.3 540L580.3 468.9Z" fill="#fbffff" stroke="#fbffff"></path><path d="M87.6 281.5L112.1 342.8L200.6 251.6Z" fill="#f6ffff" stroke="#f6ffff"></path><path d="M158.1 409.7L144.1 430.6L218.6 497.8Z" fill="#fcffff" stroke="#fcffff"></path><path d="M761.9 104.1L745.9 117.1L774.4 122.4Z" fill="#f7ffff" stroke="#f7ffff"></path><path d="M745.9 117.1L756.9 100.2L710.4 84.3Z" fill="#ffffff" stroke="#ffffff"></path><path d="M180.1 29.1L137.5 71.1L169.1 100.1Z" fill="#feffff" stroke="#feffff"></path><path d="M243.6 0L189.6 0L223.2 12.2Z" fill="#f8ffff" stroke="#f8ffff"></path><path d="M180.1 29.1L123.1 37.2L137.5 71.1Z" fill="#fcffff" stroke="#fcffff"></path><path d="M154.6 -44.9L189.6 0L243.6 0Z" fill="#fcffff" stroke="#fcffff"></path><path d="M745.9 117.1L714.4 181.2L779.9 137.4Z" fill="#fbffff" stroke="#fbffff"></path><path d="M758.4 48.1L713.8 0L710.4 84.3Z" fill="#fcffff" stroke="#fcffff"></path><path d="M137.5 71.1L116.5 111.2L162.6 103.2Z" fill="#faffff" stroke="#faffff"></path><path d="M84.1 263.5L87.6 281.5L111.6 218.5Z" fill="#feffff" stroke="#feffff"></path><path d="M133.1 423.8L144.1 430.6L158.1 409.7Z" fill="#fdffff" stroke="#fdffff"></path><path d="M779.9 137.4L714.4 181.2L731.4 199.5Z" fill="#fdffff" stroke="#fdffff"></path><path d="M211.6 561.9L222.6 518.8L129.5 540Z" fill="#fbffff" stroke="#fbffff"></path><path d="M218.6 497.8L222.6 518.8L259.2 469.9Z" fill="#f7ffff" stroke="#f7ffff"></path><path d="M779.9 137.4L731.4 199.5L803.4 160.2Z" fill="#f5ffff" stroke="#f5ffff"></path><path d="M111.6 218.5L87.6 281.5L200.6 251.6Z" fill="#f9ffff" stroke="#f9ffff"></path><path d="M112.1 342.8L133.1 423.8L158.1 409.7Z" fill="#f6ffff" stroke="#f6ffff"></path><path d="M84.1 263.5L111.6 218.5L32.5 255.5Z" fill="#ffffff" stroke="#ffffff"></path><path d="M154.6 -44.9L177.1 0L189.6 0Z" fill="#fdffff" stroke="#fdffff"></path><path d="M189.6 0L177.1 0L180.1 29.1Z" fill="#feffff" stroke="#feffff"></path><path d="M41.1 148.2L111.6 218.5L119.1 164.4Z" fill="#f6ffff" stroke="#f6ffff"></path><path d="M73.5 339.6L133.1 423.8L112.1 342.8Z" fill="#f5ffff" stroke="#f5ffff"></path><path d="M129.5 540L222.6 518.8L218.6 497.8Z" fill="#f8ffff" stroke="#f8ffff"></path><path d="M697.8 540L743.9 435.7L629.4 425.8Z" fill="#f6ffff" stroke="#f6ffff"></path><path d="M803.4 160.2L731.4 199.5L823.9 211.5Z" fill="#feffff" stroke="#feffff"></path><path d="M251.1 553.9L241.2 540L211.6 561.9Z" fill="#faffff" stroke="#faffff"></path><path d="M222.6 518.8L241.2 540L259.2 469.9Z" fill="#fcffff" stroke="#fcffff"></path><path d="M288.1 540L251.1 553.9L311.6 540Z" fill="#f9ffff" stroke="#f9ffff"></path><path d="M675.9 316.5L718.4 363.6L809.4 309.7Z" fill="#feffff" stroke="#feffff"></path><path d="M779.9 137.4L787.4 141.1L774.4 122.4Z" fill="#f7ffff" stroke="#f7ffff"></path><path d="M758.4 48.1L756.9 100.2L761.9 104.1Z" fill="#f9ffff" stroke="#f9ffff"></path><path d="M758.4 48.1L761.9 104.1L811.5 34.2Z" fill="#fdffff" stroke="#fdffff"></path><path d="M758.4 48.1L710.4 84.3L756.9 100.2Z" fill="#fcffff" stroke="#fcffff"></path><path d="M211.6 561.9L241.2 540L222.6 518.8Z" fill="#fcffff" stroke="#fcffff"></path><path d="M241.2 540L251.1 553.9L288.1 540Z" fill="#f6ffff" stroke="#f6ffff"></path><path d="M704.8 557.9L656.4 540L610.3 540Z" fill="#fdffff" stroke="#fdffff"></path><path d="M610.3 540L656.4 540L580.3 468.9Z" fill="#feffff" stroke="#feffff"></path><path d="M32.5 255.5L80.5 319.7L87.6 281.5Z" fill="#fbffff" stroke="#fbffff"></path><path d="M87.6 281.5L80.5 319.7L112.1 342.8Z" fill="#f7ffff" stroke="#f7ffff"></path><path d="M809.4 309.7L718.4 363.6L721.4 374.7Z" fill="#ffffff" stroke="#ffffff"></path><path d="M811.5 34.2L761.9 104.1L836.9 85.3Z" fill="#f8ffff" stroke="#f8ffff"></path><path d="M767.4 0L758.4 48.1L811.5 34.2Z" fill="#fbffff" stroke="#fbffff"></path><path d="M75.1 88.3L89.6 121.3L116.5 111.2Z" fill="#fcffff" stroke="#fcffff"></path><path d="M116.5 111.2L89.6 121.3L125.1 158.5Z" fill="#feffff" stroke="#feffff"></path><path d="M0 313.5L73.5 339.6L80.5 319.7Z" fill="#feffff" stroke="#feffff"></path><path d="M75.1 88.3L116.5 111.2L137.5 71.1Z" fill="#ffffff" stroke="#ffffff"></path><path d="M816.9 314.6L809.4 309.7L721.4 374.7Z" fill="#fdffff" stroke="#fdffff"></path><path d="M758.4 48.1L729.4 0L713.8 0Z" fill="#f6ffff" stroke="#f6ffff"></path><path d="M713.8 0L729.4 0L640.8 -12.9Z" fill="#f5ffff" stroke="#f5ffff"></path><path d="M640.8 -12.9L833.5 0L516.7 -32.9Z" fill="#f5ffff" stroke="#f5ffff"></path><path d="M177.1 0L123.1 37.2L180.1 29.1Z" fill="#faffff" stroke="#faffff"></path><path d="M809.4 309.7L821.4 247.5L731.4 199.5Z" fill="#f5ffff" stroke="#f5ffff"></path><path d="M32.5 255.5L87.6 281.5L84.1 263.5Z" fill="#fbffff" stroke="#fbffff"></path><path d="M80.5 319.7L73.5 339.6L112.1 342.8Z" fill="#faffff" stroke="#faffff"></path><path d="M809.4 309.7L823.5 249.5L821.4 247.5Z" fill="#fbffff" stroke="#fbffff"></path><path d="M821.4 247.5L823.9 211.5L731.4 199.5Z" fill="#f9ffff" stroke="#f9ffff"></path><path d="M835.9 396.8L816.9 314.6L721.4 374.7Z" fill="#f7ffff" stroke="#f7ffff"></path><path d="M809.4 309.7L827.9 295.5L823.5 249.5Z" fill="#faffff" stroke="#faffff"></path><path d="M823.5 249.5L823.9 211.5L821.4 247.5Z" fill="#faffff" stroke="#faffff"></path><path d="M767.4 0L744.9 0L758.4 48.1Z" fill="#f6ffff" stroke="#f6ffff"></path><path d="M758.4 48.1L744.9 0L729.4 0Z" fill="#faffff" stroke="#faffff"></path><path d="M729.4 0L744.9 0L640.8 -12.9Z" fill="#f8ffff" stroke="#f8ffff"></path><path d="M774.4 122.4L787.4 141.1L836.9 85.3Z" fill="#f5ffff" stroke="#f5ffff"></path><path d="M816.9 314.6L827.9 295.5L809.4 309.7Z" fill="#fcffff" stroke="#fcffff"></path><path d="M870.5 154.4L803.4 160.2L823.9 211.5Z" fill="#f9ffff" stroke="#f9ffff"></path><path d="M704.8 557.9L697.8 540L656.4 540Z" fill="#f8ffff" stroke="#f8ffff"></path><path d="M656.4 540L697.8 540L629.4 425.8Z" fill="#f9ffff" stroke="#f9ffff"></path><path d="M743.9 435.7L835.9 396.8L721.4 374.7Z" fill="#ffffff" stroke="#ffffff"></path><path d="M885.4 325.5L886.9 310.7L827.9 295.5Z" fill="#faffff" stroke="#faffff"></path><path d="M129.5 540L218.6 497.8L144.1 430.6Z" fill="#f9ffff" stroke="#f9ffff"></path><path d="M251.1 553.9L211.6 561.9L401.7 574.9Z" fill="#f8ffff" stroke="#f8ffff"></path><path d="M129.5 540L74.1 523.9L102.6 540Z" fill="#fcffff" stroke="#fcffff"></path><path d="M123.1 37.2L75.1 88.3L137.5 71.1Z" fill="#faffff" stroke="#faffff"></path><path d="M41.1 148.2L32.5 255.5L111.6 218.5Z" fill="#f7ffff" stroke="#f7ffff"></path><path d="M177.1 0L94.5 0L123.1 37.2Z" fill="#fcffff" stroke="#fcffff"></path><path d="M123.1 37.2L94.5 0L75.1 88.3Z" fill="#ffffff" stroke="#ffffff"></path><path d="M516.7 -32.9L154.6 -44.9L351.7 0Z" fill="#fdffff" stroke="#fdffff"></path><path d="M846.9 132.3L787.4 141.1L803.4 160.2Z" fill="#fdffff" stroke="#fdffff"></path><path d="M744.9 0L767.4 0L640.8 -12.9Z" fill="#feffff" stroke="#feffff"></path><path d="M41.1 148.2L119.1 164.4L89.6 121.3Z" fill="#fdffff" stroke="#fdffff"></path><path d="M75.1 88.3L41.1 148.2L89.6 121.3Z" fill="#f8ffff" stroke="#f8ffff"></path><path d="M461.8 577.9L704.8 557.9L610.3 540Z" fill="#fbffff" stroke="#fbffff"></path><path d="M697.8 540L765.4 504.8L743.9 435.7Z" fill="#fcffff" stroke="#fcffff"></path><path d="M738.4 540L765.4 504.8L697.8 540Z" fill="#ffffff" stroke="#ffffff"></path><path d="M870.5 154.4L823.9 211.5L899.9 215.5Z" fill="#f9ffff" stroke="#f9ffff"></path><path d="M870.5 154.4L846.9 132.3L803.4 160.2Z" fill="#faffff" stroke="#faffff"></path><path d="M704.8 557.9L738.4 540L697.8 540Z" fill="#fcffff" stroke="#fcffff"></path><path d="M154.6 -44.9L94.5 0L177.1 0Z" fill="#faffff" stroke="#faffff"></path><path d="M0 166.5L0 169.4L41.1 148.2Z" fill="#fdffff" stroke="#fdffff"></path><path d="M836.9 85.3L761.9 104.1L774.4 122.4Z" fill="#f5ffff" stroke="#f5ffff"></path><path d="M829.9 433.9L835.9 396.8L743.9 435.7Z" fill="#faffff" stroke="#faffff"></path><path d="M899.9 215.5L823.9 211.5L823.5 249.5Z" fill="#f5ffff" stroke="#f5ffff"></path><path d="M847.4 100.4L836.9 85.3L787.4 141.1Z" fill="#fdffff" stroke="#fdffff"></path><path d="M846.9 132.3L847.4 100.4L787.4 141.1Z" fill="#f5ffff" stroke="#f5ffff"></path><path d="M844.9 28.2L820.9 0L811.5 34.2Z" fill="#feffff" stroke="#feffff"></path><path d="M43.1 432.7L133.1 423.8L73.5 339.6Z" fill="#feffff" stroke="#feffff"></path><path d="M129.5 540L144.1 430.6L74.1 523.9Z" fill="#f7ffff" stroke="#f7ffff"></path><path d="M834.9 444.9L829.9 433.9L765.4 504.8Z" fill="#fdffff" stroke="#fdffff"></path><path d="M765.4 504.8L829.9 433.9L743.9 435.7Z" fill="#f6ffff" stroke="#f6ffff"></path><path d="M886.9 310.7L823.5 249.5L827.9 295.5Z" fill="#fbffff" stroke="#fbffff"></path><path d="M846.9 132.3L870.5 154.4L847.4 100.4Z" fill="#fbffff" stroke="#fbffff"></path><path d="M0 407.7L43.1 432.7L73.5 339.6Z" fill="#fdffff" stroke="#fdffff"></path><path d="M859.5 410.8L861.9 383.6L835.9 396.8Z" fill="#fcffff" stroke="#fcffff"></path><path d="M835.9 396.8L861.9 383.6L816.9 314.6Z" fill="#feffff" stroke="#feffff"></path><path d="M781.9 540L834.9 444.9L765.4 504.8Z" fill="#f5ffff" stroke="#f5ffff"></path><path d="M859.5 410.8L835.9 396.8L829.9 433.9Z" fill="#feffff" stroke="#feffff"></path><path d="M0 166.5L41.1 148.2L0 127.1Z" fill="#f6ffff" stroke="#f6ffff"></path><path d="M41.1 148.2L0 169.4L32.5 255.5Z" fill="#ffffff" stroke="#ffffff"></path><path d="M32.5 255.5L0 312.6L80.5 319.7Z" fill="#fcffff" stroke="#fcffff"></path><path d="M-14.5 211.5L0 312.6L32.5 255.5Z" fill="#fdffff" stroke="#fdffff"></path><path d="M0 312.6L0 313.5L80.5 319.7Z" fill="#f5ffff" stroke="#f5ffff"></path><path d="M5.5 119.4L41.1 148.2L75.1 88.3Z" fill="#f7ffff" stroke="#f7ffff"></path><path d="M844.9 28.2L836.9 85.3L886.5 13.1Z" fill="#f8ffff" stroke="#f8ffff"></path><path d="M844.9 28.2L811.5 34.2L836.9 85.3Z" fill="#f7ffff" stroke="#f7ffff"></path><path d="M811.5 34.2L820.9 0L767.4 0Z" fill="#f5ffff" stroke="#f5ffff"></path><path d="M767.4 0L820.9 0L640.8 -12.9Z" fill="#f6ffff" stroke="#f6ffff"></path><path d="M885.4 325.5L827.9 295.5L816.9 314.6Z" fill="#feffff" stroke="#feffff"></path><path d="M834.9 444.9L859.5 410.8L829.9 433.9Z" fill="#fdffff" stroke="#fdffff"></path><path d="M861.9 383.6L885.4 325.5L816.9 314.6Z" fill="#f7ffff" stroke="#f7ffff"></path><path d="M738.4 540L779.9 540L765.4 504.8Z" fill="#ffffff" stroke="#ffffff"></path><path d="M834.9 444.9L880.4 443.9L859.5 410.8Z" fill="#fcffff" stroke="#fcffff"></path><path d="M822.5 589.9L779.9 540L738.4 540Z" fill="#fbffff" stroke="#fbffff"></path><path d="M74.1 523.9L144.1 430.6L133.1 423.8Z" fill="#f5ffff" stroke="#f5ffff"></path><path d="M129.5 540L102.6 540L211.6 561.9Z" fill="#f9ffff" stroke="#f9ffff"></path><path d="M960 318.5L885.4 325.5L960 328.6Z" fill="#f7ffff" stroke="#f7ffff"></path><path d="M24.5 64.3L5.5 119.4L75.1 88.3Z" fill="#f7ffff" stroke="#f7ffff"></path><path d="M94.5 0L24.5 64.3L75.1 88.3Z" fill="#fbffff" stroke="#fbffff"></path><path d="M779.9 540L781.9 540L765.4 504.8Z" fill="#fcffff" stroke="#fcffff"></path><path d="M822.5 589.9L781.9 540L779.9 540Z" fill="#f8ffff" stroke="#f8ffff"></path><path d="M0 64.2L0 127.1L5.5 119.4Z" fill="#f9ffff" stroke="#f9ffff"></path><path d="M5.5 119.4L0 127.1L41.1 148.2Z" fill="#ffffff" stroke="#ffffff"></path><path d="M886.5 13.1L836.9 85.3L847.4 100.4Z" fill="#f8ffff" stroke="#f8ffff"></path><path d="M0 127.1L-14.5 211.5L0 166.5Z" fill="#fdffff" stroke="#fdffff"></path><path d="M0 166.5L-14.5 211.5L0 169.4Z" fill="#f8ffff" stroke="#f8ffff"></path><path d="M0 169.4L-14.5 211.5L32.5 255.5Z" fill="#f9ffff" stroke="#f9ffff"></path><path d="M0 312.6L-29.5 360.8L0 313.5Z" fill="#f7ffff" stroke="#f7ffff"></path><path d="M886.9 310.7L899.9 215.5L823.5 249.5Z" fill="#faffff" stroke="#faffff"></path><path d="M870.5 154.4L896.5 156.5L847.4 100.4Z" fill="#f9ffff" stroke="#f9ffff"></path><path d="M896.5 156.5L899.9 215.5L960 200.3Z" fill="#fdffff" stroke="#fdffff"></path><path d="M844.9 28.2L833.5 0L820.9 0Z" fill="#fdffff" stroke="#fdffff"></path><path d="M820.9 0L833.5 0L640.8 -12.9Z" fill="#fbffff" stroke="#fbffff"></path><path d="M899.9 215.5L896.5 156.5L870.5 154.4Z" fill="#feffff" stroke="#feffff"></path><path d="M41.5 508.9L74.1 523.9L43.1 432.7Z" fill="#feffff" stroke="#feffff"></path><path d="M43.1 432.7L74.1 523.9L133.1 423.8Z" fill="#faffff" stroke="#faffff"></path><path d="M0 313.5L0 407.7L73.5 339.6Z" fill="#fdffff" stroke="#fdffff"></path><path d="M-29.5 360.8L0 407.7L0 313.5Z" fill="#fdffff" stroke="#fdffff"></path><path d="M0 54.3L0 64.2L24.5 64.3Z" fill="#f7ffff" stroke="#f7ffff"></path><path d="M24.5 64.3L0 64.2L5.5 119.4Z" fill="#f7ffff" stroke="#f7ffff"></path><path d="M0 127.1L0 64.2L-14.5 211.5Z" fill="#f5ffff" stroke="#f5ffff"></path><path d="M0 54.3L24.5 64.3L27.1 0Z" fill="#feffff" stroke="#feffff"></path><path d="M27.1 0L24.5 64.3L94.5 0Z" fill="#faffff" stroke="#faffff"></path><path d="M0 64.2L0 54.3L-14.5 211.5Z" fill="#faffff" stroke="#faffff"></path><path d="M154.6 -44.9L27.1 0L94.5 0Z" fill="#fcffff" stroke="#fcffff"></path><path d="M0 453.9L41.5 508.9L43.1 432.7Z" fill="#f7ffff" stroke="#f7ffff"></path><path d="M74.1 523.9L54.1 540L102.6 540Z" fill="#fcffff" stroke="#fcffff"></path><path d="M913.9 526.8L880.4 443.9L834.9 444.9Z" fill="#fbffff" stroke="#fbffff"></path><path d="M859.5 410.8L960 406.7L861.9 383.6Z" fill="#f6ffff" stroke="#f6ffff"></path><path d="M960 244.5L899.9 215.5L960 256.4Z" fill="#f6ffff" stroke="#f6ffff"></path><path d="M0 0L-29.5 360.8L-14.5 211.5Z" fill="#fcffff" stroke="#fcffff"></path><path d="M-14.5 211.5L-29.5 360.8L0 312.6Z" fill="#feffff" stroke="#feffff"></path><path d="M0 407.7L0 453.9L43.1 432.7Z" fill="#f9ffff" stroke="#f9ffff"></path><path d="M0 540L54.1 540L41.5 508.9Z" fill="#faffff" stroke="#faffff"></path><path d="M41.5 508.9L54.1 540L74.1 523.9Z" fill="#fbffff" stroke="#fbffff"></path><path d="M102.6 540L54.1 540L211.6 561.9Z" fill="#f6ffff" stroke="#f6ffff"></path><path d="M-29.5 360.8L0 453.9L0 407.7Z" fill="#feffff" stroke="#feffff"></path><path d="M960 68.1L886.5 13.1L847.4 100.4Z" fill="#f6ffff" stroke="#f6ffff"></path><path d="M844.9 28.2L886.5 13.1L833.5 0Z" fill="#ffffff" stroke="#ffffff"></path><path d="M27.1 0L0 0L0 54.3Z" fill="#faffff" stroke="#faffff"></path><path d="M0 54.3L0 0L-14.5 211.5Z" fill="#faffff" stroke="#faffff"></path><path d="M154.6 -44.9L0 0L27.1 0Z" fill="#faffff" stroke="#faffff"></path><path d="M-29.5 360.8L0 493.8L0 453.9Z" fill="#feffff" stroke="#feffff"></path><path d="M0 453.9L0 493.8L41.5 508.9Z" fill="#f7ffff" stroke="#f7ffff"></path><path d="M704.8 557.9L822.5 589.9L738.4 540Z" fill="#f7ffff" stroke="#f7ffff"></path><path d="M781.9 540L913.9 526.8L834.9 444.9Z" fill="#faffff" stroke="#faffff"></path><path d="M461.8 577.9L822.5 589.9L704.8 557.9Z" fill="#fbffff" stroke="#fbffff"></path><path d="M951.5 136.3L946.9 131.4L896.5 156.5Z" fill="#feffff" stroke="#feffff"></path><path d="M896.5 156.5L946.9 131.4L847.4 100.4Z" fill="#f5ffff" stroke="#f5ffff"></path><path d="M899.9 215.5L886.9 310.7L960 256.4Z" fill="#f9ffff" stroke="#f9ffff"></path><path d="M886.9 310.7L885.4 325.5L960 318.5Z" fill="#f9ffff" stroke="#f9ffff"></path><path d="M960 256.4L886.9 310.7L960 318.5Z" fill="#f8ffff" stroke="#f8ffff"></path><path d="M885.4 325.5L956.5 349.6L960 328.6Z" fill="#f9ffff" stroke="#f9ffff"></path><path d="M960 244.5L960 200.3L899.9 215.5Z" fill="#fcffff" stroke="#fcffff"></path><path d="M960 200.3L951.5 136.3L896.5 156.5Z" fill="#faffff" stroke="#faffff"></path><path d="M946.9 131.4L960 68.1L847.4 100.4Z" fill="#f8ffff" stroke="#f8ffff"></path><path d="M885.4 325.5L861.9 383.6L956.5 349.6Z" fill="#faffff" stroke="#faffff"></path><path d="M956.5 349.6L861.9 383.6L960 406.7Z" fill="#f5ffff" stroke="#f5ffff"></path><path d="M960 406.7L859.5 410.8L880.4 443.9Z" fill="#fcffff" stroke="#fcffff"></path><path d="M960 200.3L960 138.2L951.5 136.3Z" fill="#fbffff" stroke="#fbffff"></path><path d="M951.5 136.3L960 138.2L946.9 131.4Z" fill="#f9ffff" stroke="#f9ffff"></path><path d="M-29.5 360.8L0 540L0 493.8Z" fill="#fbffff" stroke="#fbffff"></path><path d="M0 493.8L0 540L41.5 508.9Z" fill="#f5ffff" stroke="#f5ffff"></path><path d="M54.1 540L0 540L211.6 561.9Z" fill="#ffffff" stroke="#ffffff"></path><path d="M960 411.8L960 406.7L880.4 443.9Z" fill="#feffff" stroke="#feffff"></path><path d="M956.5 349.6L992.5 470.7L960 328.6Z" fill="#f5ffff" stroke="#f5ffff"></path><path d="M960 476.9L960 411.8L880.4 443.9Z" fill="#fdffff" stroke="#fdffff"></path><path d="M960 138.2L960 68.1L946.9 131.4Z" fill="#fbffff" stroke="#fbffff"></path><path d="M822.5 589.9L913.9 526.8L781.9 540Z" fill="#fbffff" stroke="#fbffff"></path><path d="M913.9 526.8L960 476.9L880.4 443.9Z" fill="#ffffff" stroke="#ffffff"></path><path d="M960 68.1L960 0L886.5 13.1Z" fill="#ffffff" stroke="#ffffff"></path><path d="M886.5 13.1L960 0L833.5 0Z" fill="#f9ffff" stroke="#f9ffff"></path><path d="M833.5 0L960 0L516.7 -32.9Z" fill="#fbffff" stroke="#fbffff"></path><path d="M822.5 589.9L935.5 540L913.9 526.8Z" fill="#fdffff" stroke="#fdffff"></path><path d="M913.9 526.8L935.5 540L960 476.9Z" fill="#fcffff" stroke="#fcffff"></path><path d="M960 540L992.5 470.7L960 476.9Z" fill="#faffff" stroke="#faffff"></path><path d="M960 476.9L992.5 470.7L960 411.8Z" fill="#f7ffff" stroke="#f7ffff"></path><path d="M960 411.8L992.5 470.7L960 406.7Z" fill="#fbffff" stroke="#fbffff"></path><path d="M960 406.7L992.5 470.7L956.5 349.6Z" fill="#faffff" stroke="#faffff"></path><path d="M960 328.6L992.5 470.7L960 318.5Z" fill="#f7ffff" stroke="#f7ffff"></path><path d="M960 318.5L992.5 470.7L960 256.4Z" fill="#feffff" stroke="#feffff"></path><path d="M960 256.4L992.5 470.7L960 244.5Z" fill="#ffffff" stroke="#ffffff"></path><path d="M960 244.5L992.5 470.7L960 200.3Z" fill="#f7ffff" stroke="#f7ffff"></path><path d="M960 200.3L992.5 470.7L960 138.2Z" fill="#f8ffff" stroke="#f8ffff"></path><path d="M960 138.2L992.5 470.7L960 68.1Z" fill="#faffff" stroke="#faffff"></path><path d="M960 68.1L992.5 470.7L960 0Z" fill="#ffffff" stroke="#ffffff"></path><path d="M822.5 589.9L960 540L935.5 540Z" fill="#f9ffff" stroke="#f9ffff"></path><path d="M935.5 540L960 540L960 476.9Z" fill="#ffffff" stroke="#ffffff"></path></g></svg>