<svg width="43" height="43" viewBox="0 0 43 43" fill="none" xmlns="http://www.w3.org/2000/svg">
<path d="M21.5 0.300049C9.79235 0.300049 0.300049 9.79235 0.300049 21.5C0.300049 31.434 7.14058 39.7462 16.3626 42.0464C16.2636 41.7602 16.2 41.4281 16.2 41.0164V37.393C15.3397 37.393 13.8981 37.393 13.5359 37.393C12.0855 37.393 10.7958 36.7694 10.1704 35.6104C9.47612 34.3225 9.35598 32.3527 7.63525 31.1478C7.12468 30.7468 7.51335 30.2892 8.10165 30.3511C9.18815 30.6585 10.0891 31.404 10.9371 32.5099C11.7816 33.6176 12.1791 33.8685 13.7567 33.8685C14.5217 33.8685 15.6665 33.8243 16.7442 33.6547C17.3236 32.1831 18.3253 30.828 19.5497 30.1885C12.49 29.4624 9.12102 25.9503 9.12102 21.182C9.12102 19.1292 9.99552 17.1434 11.4813 15.4704C10.9937 13.8097 10.3807 10.423 11.6686 9.13338C14.845 9.13338 16.7654 11.1933 17.2265 11.7498C18.8094 11.2074 20.5478 10.9 22.3745 10.9C24.2048 10.9 25.9503 11.2074 27.5368 11.7533C27.9925 11.2004 29.9147 9.13338 33.0982 9.13338C34.3914 10.4248 33.7713 13.8256 33.2784 15.4828C34.7554 17.1523 35.6246 19.1327 35.6246 21.182C35.6246 25.9468 32.2608 29.4571 25.2118 30.1868C27.1516 31.1991 28.5667 34.0434 28.5667 36.1864V41.0164C28.5667 41.2002 28.5261 41.3327 28.5049 41.4899C36.7658 38.5943 42.7001 30.7503 42.7001 21.5C42.7001 9.79235 33.2078 0.300049 21.5 0.300049Z" fill="#1B263B"/>
</svg>
