<svg width="135" height="124" viewBox="0 0 135 124" fill="none" xmlns="http://www.w3.org/2000/svg">
<path d="M67.5 0C30.2231 0 0 28.1952 0 62.9708C0 92.4779 21.78 117.168 51.1425 124C50.8275 123.15 50.625 122.163 50.625 120.941V110.178C47.8856 110.178 43.2956 110.178 42.1425 110.178C37.5244 110.178 33.4181 108.326 31.4269 104.883C29.2162 101.058 28.8337 95.2066 23.355 91.6278C21.7294 90.4366 22.9669 89.0774 24.84 89.2611C28.2994 90.1742 31.1681 92.3887 33.8681 95.6736C36.5569 98.9639 37.8225 99.709 42.8456 99.709C45.2812 99.709 48.9262 99.5778 52.3575 99.0741C54.2025 94.7028 57.3919 90.6779 61.29 88.7783C38.8125 86.6216 28.0856 76.1894 28.0856 62.0262C28.0856 55.9286 30.87 50.0303 35.6006 45.0609C34.0481 40.1281 32.0963 30.0686 36.1969 26.2378C46.3106 26.2378 52.425 32.3565 53.8931 34.0095C58.9331 32.3985 64.4681 31.4854 70.2844 31.4854C76.1119 31.4854 81.6694 32.3985 86.7206 34.02C88.1719 32.3775 94.2919 26.2378 104.428 26.2378C108.546 30.0738 106.571 40.1754 105.002 45.0976C109.704 50.0565 112.472 55.9391 112.472 62.0262C112.472 76.1789 101.762 86.6058 79.3181 88.7731C85.4944 91.7799 90 100.229 90 106.594V120.941C90 121.486 89.8706 121.88 89.8031 122.347C116.106 113.746 135 90.4471 135 62.9708C135 28.1952 104.777 0 67.5 0Z" fill="white"/>
</svg>
