<svg width="119" height="114" viewBox="0 0 119 114" fill="none" xmlns="http://www.w3.org/2000/svg">
<path d="M107.333 0H10.7333C4.80317 0 0 4.62417 0 10.3333V103.333C0 109.042 4.80317 113.667 10.7333 113.667H107.333C113.263 113.667 118.067 109.042 118.067 103.333V10.3333C118.067 4.62417 113.263 0 107.333 0ZM37.3198 93H21.4881V43.958H37.3198V93ZM29.243 36.9468C24.1393 36.9468 20.0123 32.9633 20.0123 28.0602C20.0123 23.157 24.1446 19.1787 29.243 19.1787C34.3306 19.1787 38.4683 23.1622 38.4683 28.0602C38.4683 32.9633 34.3306 36.9468 29.243 36.9468ZM96.6215 93H80.8005V69.1507C80.8005 63.4622 80.6932 56.1462 72.5734 56.1462C64.3356 56.1462 63.0691 62.341 63.0691 68.7373V93H47.2481V43.958H62.4358V50.6592H62.6505C64.7649 46.8048 69.9277 42.7387 77.6288 42.7387C93.6591 42.7387 96.6215 52.8963 96.6215 66.1023V93Z" fill="white"/>
</svg>
